solid OpenSCAD_Model
  facet normal -0.980785 0 0.195089
    outer loop
      vertex -6 -1 0
      vertex -5.54328 1 2.2961
      vertex -6 1 0
    endloop
  endfacet
  facet normal -0.980785 0 0.195089
    outer loop
      vertex -5.54328 1 2.2961
      vertex -6 -1 0
      vertex -5.54328 -1 2.2961
    endloop
  endfacet
  facet normal -0.831469 0 0.555571
    outer loop
      vertex -5.54328 -1 2.2961
      vertex -4.24264 1 4.24264
      vertex -5.54328 1 2.2961
    endloop
  endfacet
  facet normal -0.831469 0 0.555571
    outer loop
      vertex -4.24264 1 4.24264
      vertex -5.54328 -1 2.2961
      vertex -4.24264 -1 4.24264
    endloop
  endfacet
  facet normal -0.195089 0 -0.980785
    outer loop
      vertex -2.2961 -1 -5.54328
      vertex 0 1 -6
      vertex 0 -1 -6
    endloop
  endfacet
  facet normal -0.195089 0 -0.980785
    outer loop
      vertex 0 1 -6
      vertex -2.2961 -1 -5.54328
      vertex -2.2961 1 -5.54328
    endloop
  endfacet
  facet normal 0.831457 0 -0.555589
    outer loop
      vertex 45.5433 -1 -2.2961
      vertex 44.2426 1 -4.24264
      vertex 45.5433 1 -2.2961
    endloop
  endfacet
  facet normal 0.831457 0 -0.555589
    outer loop
      vertex 44.2426 1 -4.24264
      vertex 45.5433 -1 -2.2961
      vertex 44.2426 -1 -4.24264
    endloop
  endfacet
  facet normal 0 0 -1
    outer loop
      vertex 0 -1 -6
      vertex 40 1 -6
      vertex 40 -1 -6
    endloop
  endfacet
  facet normal -0 0 -1
    outer loop
      vertex 40 1 -6
      vertex 0 -1 -6
      vertex 0 1 -6
    endloop
  endfacet
  facet normal 0 1 0
    outer loop
      vertex 40 1 -6
      vertex 40 1 6
      vertex 42.2961 1 5.54328
    endloop
  endfacet
  facet normal 0 1 0
    outer loop
      vertex 40 1 6
      vertex 2.82843 1 2.82843
      vertex 0 1 6
    endloop
  endfacet
  facet normal 0 1 0
    outer loop
      vertex 40 1 -6
      vertex 42.2961 1 5.54328
      vertex 44.2426 1 4.24264
    endloop
  endfacet
  facet normal -0 1 0
    outer loop
      vertex 0 1 4
      vertex 0 1 6
      vertex 1.53073 1 3.69552
    endloop
  endfacet
  facet normal 0 1 -0
    outer loop
      vertex -1.53073 1 3.69552
      vertex -2.2961 1 5.54328
      vertex 0 1 4
    endloop
  endfacet
  facet normal 0 1 0
    outer loop
      vertex 0 1 6
      vertex 0 1 4
      vertex -2.2961 1 5.54328
    endloop
  endfacet
  facet normal 0 1 0
    outer loop
      vertex 0 1 6
      vertex 2.82843 1 2.82843
      vertex 1.53073 1 3.69552
    endloop
  endfacet
  facet normal 0 1 0
    outer loop
      vertex 40 1 -6
      vertex 44.2426 1 4.24264
      vertex 45.5433 1 2.2961
    endloop
  endfacet
  facet normal 0 1 0
    outer loop
      vertex 40 1 6
      vertex 3.69552 1 1.53073
      vertex 2.82843 1 2.82843
    endloop
  endfacet
  facet normal 0 1 0
    outer loop
      vertex 40 1 -6
      vertex 45.5433 1 2.2961
      vertex 46 1 0
    endloop
  endfacet
  facet normal 0 1 0
    outer loop
      vertex 40 1 6
      vertex 40 1 -6
      vertex 4 1 0
    endloop
  endfacet
  facet normal 0 1 0
    outer loop
      vertex 40 1 6
      vertex 4 1 0
      vertex 3.69552 1 1.53073
    endloop
  endfacet
  facet normal 0 1 0
    outer loop
      vertex 40 1 -6
      vertex 46 1 0
      vertex 45.5433 1 -2.2961
    endloop
  endfacet
  facet normal 0 1 0
    outer loop
      vertex 4 1 0
      vertex 40 1 -6
      vertex 3.69552 1 -1.53073
    endloop
  endfacet
  facet normal 0 1 0
    outer loop
      vertex 3.69552 1 -1.53073
      vertex 40 1 -6
      vertex 2.82843 1 -2.82843
    endloop
  endfacet
  facet normal 0 1 0
    outer loop
      vertex 0 1 -6
      vertex 2.82843 1 -2.82843
      vertex 40 1 -6
    endloop
  endfacet
  facet normal 0 1 0
    outer loop
      vertex 40 1 -6
      vertex 45.5433 1 -2.2961
      vertex 44.2426 1 -4.24264
    endloop
  endfacet
  facet normal 0 1 0
    outer loop
      vertex -2.2961 1 5.54328
      vertex -1.53073 1 3.69552
      vertex -4.24264 1 4.24264
    endloop
  endfacet
  facet normal 0 1 -0
    outer loop
      vertex -2.82843 1 2.82843
      vertex -4.24264 1 4.24264
      vertex -1.53073 1 3.69552
    endloop
  endfacet
  facet normal 0 1 0
    outer loop
      vertex -2.82843 1 2.82843
      vertex -5.54328 1 2.2961
      vertex -4.24264 1 4.24264
    endloop
  endfacet
  facet normal 0 1 -0
    outer loop
      vertex -3.69552 1 1.53073
      vertex -5.54328 1 2.2961
      vertex -2.82843 1 2.82843
    endloop
  endfacet
  facet normal 0 1 -0
    outer loop
      vertex -4 1 0
      vertex -5.54328 1 2.2961
      vertex -3.69552 1 1.53073
    endloop
  endfacet
  facet normal 0 1 0
    outer loop
      vertex -4 1 0
      vertex -6 1 0
      vertex -5.54328 1 2.2961
    endloop
  endfacet
  facet normal 0 1 0
    outer loop
      vertex -3.69552 1 -1.53073
      vertex -6 1 0
      vertex -4 1 0
    endloop
  endfacet
  facet normal 0 1 0
    outer loop
      vertex -3.69552 1 -1.53073
      vertex -5.54328 1 -2.2961
      vertex -6 1 0
    endloop
  endfacet
  facet normal 0 1 0
    outer loop
      vertex -2.82843 1 -2.82843
      vertex -5.54328 1 -2.2961
      vertex -3.69552 1 -1.53073
    endloop
  endfacet
  facet normal 0 1 0
    outer loop
      vertex -4.24264 1 -4.24264
      vertex -2.82843 1 -2.82843
      vertex -1.53073 1 -3.69552
    endloop
  endfacet
  facet normal 0 1 0
    outer loop
      vertex -2.82843 1 -2.82843
      vertex -4.24264 1 -4.24264
      vertex -5.54328 1 -2.2961
    endloop
  endfacet
  facet normal 0 1 0
    outer loop
      vertex -2.2961 1 -5.54328
      vertex -1.53073 1 -3.69552
      vertex 0 1 -4
    endloop
  endfacet
  facet normal 0 1 0
    outer loop
      vertex 2.82843 1 -2.82843
      vertex 0 1 -6
      vertex 1.53073 1 -3.69552
    endloop
  endfacet
  facet normal 0 1 0
    outer loop
      vertex 40 1 -6
      vertex 44.2426 1 -4.24264
      vertex 42.2961 1 -5.54328
    endloop
  endfacet
  facet normal 0 1 0
    outer loop
      vertex 1.53073 1 -3.69552
      vertex 0 1 -6
      vertex 0 1 -4
    endloop
  endfacet
  facet normal -0 1 0
    outer loop
      vertex -2.2961 1 -5.54328
      vertex 0 1 -4
      vertex 0 1 -6
    endloop
  endfacet
  facet normal 0 1 0
    outer loop
      vertex -1.53073 1 -3.69552
      vertex -2.2961 1 -5.54328
      vertex -4.24264 1 -4.24264
    endloop
  endfacet
  facet normal 0 -1 0
    outer loop
      vertex 0 -1 4
      vertex 0 -1 6
      vertex -2.2961 -1 5.54328
    endloop
  endfacet
  facet normal 0 -1 0
    outer loop
      vertex 2.82843 -1 2.82843
      vertex 0 -1 6
      vertex 1.53073 -1 3.69552
    endloop
  endfacet
  facet normal 0 -1 0
    outer loop
      vertex -1.53073 -1 3.69552
      vertex -2.2961 -1 5.54328
      vertex -4.24264 -1 4.24264
    endloop
  endfacet
  facet normal 0 -1 0
    outer loop
      vertex 0 -1 6
      vertex 0 -1 4
      vertex 1.53073 -1 3.69552
    endloop
  endfacet
  facet normal 0 -1 0
    outer loop
      vertex 0 -1 6
      vertex 2.82843 -1 2.82843
      vertex 40 -1 6
    endloop
  endfacet
  facet normal 0 -1 0
    outer loop
      vertex -2.2961 -1 5.54328
      vertex -1.53073 -1 3.69552
      vertex 0 -1 4
    endloop
  endfacet
  facet normal 0 -1 0
    outer loop
      vertex -4.24264 -1 4.24264
      vertex -2.82843 -1 2.82843
      vertex -1.53073 -1 3.69552
    endloop
  endfacet
  facet normal 0 -1 0
    outer loop
      vertex -5.54328 -1 2.2961
      vertex -2.82843 -1 2.82843
      vertex -4.24264 -1 4.24264
    endloop
  endfacet
  facet normal 0 -1 0
    outer loop
      vertex -5.54328 -1 2.2961
      vertex -3.69552 -1 1.53073
      vertex -2.82843 -1 2.82843
    endloop
  endfacet
  facet normal 0 -1 0
    outer loop
      vertex -6 -1 0
      vertex -3.69552 -1 1.53073
      vertex -5.54328 -1 2.2961
    endloop
  endfacet
  facet normal 0 -1 0
    outer loop
      vertex -6 -1 0
      vertex -4 -1 0
      vertex -3.69552 -1 1.53073
    endloop
  endfacet
  facet normal 0 -1 0
    outer loop
      vertex -6 -1 0
      vertex -3.69552 -1 -1.53073
      vertex -4 -1 0
    endloop
  endfacet
  facet normal 0 -1 0
    outer loop
      vertex -5.54328 -1 -2.2961
      vertex -3.69552 -1 -1.53073
      vertex -6 -1 0
    endloop
  endfacet
  facet normal 0 -1 0
    outer loop
      vertex -5.54328 -1 -2.2961
      vertex -2.82843 -1 -2.82843
      vertex -3.69552 -1 -1.53073
    endloop
  endfacet
  facet normal 0 -1 0
    outer loop
      vertex -4.24264 -1 -4.24264
      vertex -2.82843 -1 -2.82843
      vertex -5.54328 -1 -2.2961
    endloop
  endfacet
  facet normal 0 -1 0
    outer loop
      vertex -2.2961 -1 -5.54328
      vertex -1.53073 -1 -3.69552
      vertex -4.24264 -1 -4.24264
    endloop
  endfacet
  facet normal 0 -1 -0
    outer loop
      vertex -2.82843 -1 -2.82843
      vertex -4.24264 -1 -4.24264
      vertex -1.53073 -1 -3.69552
    endloop
  endfacet
  facet normal 0 -1 0
    outer loop
      vertex 3.69552 -1 1.53073
      vertex 40 -1 6
      vertex 2.82843 -1 2.82843
    endloop
  endfacet
  facet normal 0 -1 0
    outer loop
      vertex 4 -1 0
      vertex 40 -1 6
      vertex 3.69552 -1 1.53073
    endloop
  endfacet
  facet normal 0 -1 0
    outer loop
      vertex 40 -1 -6
      vertex 40 -1 6
      vertex 4 -1 0
    endloop
  endfacet
  facet normal 0 -1 -0
    outer loop
      vertex 42.2961 -1 5.54328
      vertex 40 -1 -6
      vertex 44.2426 -1 4.24264
    endloop
  endfacet
  facet normal 0 -1 0
    outer loop
      vertex 40 -1 6
      vertex 40 -1 -6
      vertex 42.2961 -1 5.54328
    endloop
  endfacet
  facet normal 0 -1 -0
    outer loop
      vertex 44.2426 -1 4.24264
      vertex 40 -1 -6
      vertex 45.5433 -1 2.2961
    endloop
  endfacet
  facet normal 0 -1 0
    outer loop
      vertex 40 -1 -6
      vertex 4 -1 0
      vertex 3.69552 -1 -1.53073
    endloop
  endfacet
  facet normal 0 -1 -0
    outer loop
      vertex 45.5433 -1 2.2961
      vertex 40 -1 -6
      vertex 46 -1 0
    endloop
  endfacet
  facet normal 0 -1 0
    outer loop
      vertex 40 -1 -6
      vertex 3.69552 -1 -1.53073
      vertex 2.82843 -1 -2.82843
    endloop
  endfacet
  facet normal 0 -1 0
    outer loop
      vertex 0 -1 -6
      vertex 2.82843 -1 -2.82843
      vertex 1.53073 -1 -3.69552
    endloop
  endfacet
  facet normal 0 -1 0
    outer loop
      vertex 0 -1 -6
      vertex 1.53073 -1 -3.69552
      vertex 0 -1 -4
    endloop
  endfacet
  facet normal 0 -1 -0
    outer loop
      vertex -1.53073 -1 -3.69552
      vertex -2.2961 -1 -5.54328
      vertex 0 -1 -4
    endloop
  endfacet
  facet normal 0 -1 -0
    outer loop
      vertex 2.82843 -1 -2.82843
      vertex 0 -1 -6
      vertex 40 -1 -6
    endloop
  endfacet
  facet normal 0 -1 -0
    outer loop
      vertex 0 -1 -4
      vertex -2.2961 -1 -5.54328
      vertex 0 -1 -6
    endloop
  endfacet
  facet normal 0 -1 0
    outer loop
      vertex 46 -1 0
      vertex 40 -1 -6
      vertex 45.5433 -1 -2.2961
    endloop
  endfacet
  facet normal 0 -1 0
    outer loop
      vertex 45.5433 -1 -2.2961
      vertex 40 -1 -6
      vertex 44.2426 -1 -4.24264
    endloop
  endfacet
  facet normal 0 -1 0
    outer loop
      vertex 44.2426 -1 -4.24264
      vertex 40 -1 -6
      vertex 42.2961 -1 -5.54328
    endloop
  endfacet
  facet normal -0.555571 0 -0.831469
    outer loop
      vertex -4.24264 -1 -4.24264
      vertex -2.2961 1 -5.54328
      vertex -2.2961 -1 -5.54328
    endloop
  endfacet
  facet normal -0.555571 0 -0.831469
    outer loop
      vertex -2.2961 1 -5.54328
      vertex -4.24264 -1 -4.24264
      vertex -4.24264 1 -4.24264
    endloop
  endfacet
  facet normal -0.980785 0 -0.195089
    outer loop
      vertex -5.54328 -1 -2.2961
      vertex -6 1 0
      vertex -5.54328 1 -2.2961
    endloop
  endfacet
  facet normal -0.980785 -0 -0.195089
    outer loop
      vertex -6 1 0
      vertex -5.54328 -1 -2.2961
      vertex -6 -1 0
    endloop
  endfacet
  facet normal 0.980787 0 -0.195081
    outer loop
      vertex 46 -1 0
      vertex 45.5433 1 -2.2961
      vertex 46 1 0
    endloop
  endfacet
  facet normal 0.980787 0 -0.195081
    outer loop
      vertex 45.5433 1 -2.2961
      vertex 46 -1 0
      vertex 45.5433 -1 -2.2961
    endloop
  endfacet
  facet normal 0.831457 -0 0.555589
    outer loop
      vertex 44.2426 -1 4.24264
      vertex 45.5433 1 2.2961
      vertex 44.2426 1 4.24264
    endloop
  endfacet
  facet normal 0.831457 0 0.555589
    outer loop
      vertex 45.5433 1 2.2961
      vertex 44.2426 -1 4.24264
      vertex 45.5433 -1 2.2961
    endloop
  endfacet
  facet normal -0 0 1
    outer loop
      vertex 0 1 6
      vertex 40 -1 6
      vertex 40 1 6
    endloop
  endfacet
  facet normal 0 0 1
    outer loop
      vertex 40 -1 6
      vertex 0 1 6
      vertex 0 -1 6
    endloop
  endfacet
  facet normal -0.831469 0 -0.555571
    outer loop
      vertex -4.24264 -1 -4.24264
      vertex -5.54328 1 -2.2961
      vertex -4.24264 1 -4.24264
    endloop
  endfacet
  facet normal -0.831469 -0 -0.555571
    outer loop
      vertex -5.54328 1 -2.2961
      vertex -4.24264 -1 -4.24264
      vertex -5.54328 -1 -2.2961
    endloop
  endfacet
  facet normal 0.195089 0 0.980785
    outer loop
      vertex 40 1 6
      vertex 42.2961 -1 5.54328
      vertex 42.2961 1 5.54328
    endloop
  endfacet
  facet normal 0.195089 0 0.980785
    outer loop
      vertex 42.2961 -1 5.54328
      vertex 40 1 6
      vertex 40 -1 6
    endloop
  endfacet
  facet normal 0.555579 0 0.831464
    outer loop
      vertex 42.2961 1 5.54328
      vertex 44.2426 -1 4.24264
      vertex 44.2426 1 4.24264
    endloop
  endfacet
  facet normal 0.555579 0 0.831464
    outer loop
      vertex 44.2426 -1 4.24264
      vertex 42.2961 1 5.54328
      vertex 42.2961 -1 5.54328
    endloop
  endfacet
  facet normal 0.555579 0 -0.831464
    outer loop
      vertex 42.2961 -1 -5.54328
      vertex 44.2426 1 -4.24264
      vertex 44.2426 -1 -4.24264
    endloop
  endfacet
  facet normal 0.555579 0 -0.831464
    outer loop
      vertex 44.2426 1 -4.24264
      vertex 42.2961 -1 -5.54328
      vertex 42.2961 1 -5.54328
    endloop
  endfacet
  facet normal 0.195089 0 -0.980785
    outer loop
      vertex 40 -1 -6
      vertex 42.2961 1 -5.54328
      vertex 42.2961 -1 -5.54328
    endloop
  endfacet
  facet normal 0.195089 0 -0.980785
    outer loop
      vertex 42.2961 1 -5.54328
      vertex 40 -1 -6
      vertex 40 1 -6
    endloop
  endfacet
  facet normal 0.980787 -0 0.195081
    outer loop
      vertex 45.5433 -1 2.2961
      vertex 46 1 0
      vertex 45.5433 1 2.2961
    endloop
  endfacet
  facet normal 0.980787 0 0.195081
    outer loop
      vertex 46 1 0
      vertex 45.5433 -1 2.2961
      vertex 46 -1 0
    endloop
  endfacet
  facet normal -0.555571 0 0.831469
    outer loop
      vertex -4.24264 1 4.24264
      vertex -2.2961 -1 5.54328
      vertex -2.2961 1 5.54328
    endloop
  endfacet
  facet normal -0.555571 0 0.831469
    outer loop
      vertex -2.2961 -1 5.54328
      vertex -4.24264 1 4.24264
      vertex -4.24264 -1 4.24264
    endloop
  endfacet
  facet normal -0.195089 0 0.980785
    outer loop
      vertex -2.2961 1 5.54328
      vertex 0 -1 6
      vertex 0 1 6
    endloop
  endfacet
  facet normal -0.195089 0 0.980785
    outer loop
      vertex 0 -1 6
      vertex -2.2961 1 5.54328
      vertex -2.2961 -1 5.54328
    endloop
  endfacet
  facet normal -0.980785 0 -0.19509
    outer loop
      vertex 4 -1 0
      vertex 3.69552 1 1.53073
      vertex 4 1 0
    endloop
  endfacet
  facet normal -0.980785 -0 -0.19509
    outer loop
      vertex 3.69552 1 1.53073
      vertex 4 -1 0
      vertex 3.69552 -1 1.53073
    endloop
  endfacet
  facet normal 0.980785 0 -0.19509
    outer loop
      vertex -3.69552 -1 1.53073
      vertex -4 1 0
      vertex -3.69552 1 1.53073
    endloop
  endfacet
  facet normal 0.980785 0 -0.19509
    outer loop
      vertex -4 1 0
      vertex -3.69552 -1 1.53073
      vertex -4 -1 0
    endloop
  endfacet
  facet normal -0.19509 0 -0.980785
    outer loop
      vertex 0 -1 4
      vertex 1.53073 1 3.69552
      vertex 1.53073 -1 3.69552
    endloop
  endfacet
  facet normal -0.19509 0 -0.980785
    outer loop
      vertex 1.53073 1 3.69552
      vertex 0 -1 4
      vertex 0 1 4
    endloop
  endfacet
  facet normal -0.831471 0 -0.555568
    outer loop
      vertex 3.69552 -1 1.53073
      vertex 2.82843 1 2.82843
      vertex 3.69552 1 1.53073
    endloop
  endfacet
  facet normal -0.831471 -0 -0.555568
    outer loop
      vertex 2.82843 1 2.82843
      vertex 3.69552 -1 1.53073
      vertex 2.82843 -1 2.82843
    endloop
  endfacet
  facet normal -0.831471 0 0.555568
    outer loop
      vertex 2.82843 -1 -2.82843
      vertex 3.69552 1 -1.53073
      vertex 2.82843 1 -2.82843
    endloop
  endfacet
  facet normal -0.831471 0 0.555568
    outer loop
      vertex 3.69552 1 -1.53073
      vertex 2.82843 -1 -2.82843
      vertex 3.69552 -1 -1.53073
    endloop
  endfacet
  facet normal -0.555568 0 0.831471
    outer loop
      vertex 1.53073 1 -3.69552
      vertex 2.82843 -1 -2.82843
      vertex 2.82843 1 -2.82843
    endloop
  endfacet
  facet normal -0.555568 0 0.831471
    outer loop
      vertex 2.82843 -1 -2.82843
      vertex 1.53073 1 -3.69552
      vertex 1.53073 -1 -3.69552
    endloop
  endfacet
  facet normal 0.19509 0 0.980785
    outer loop
      vertex -1.53073 1 -3.69552
      vertex 0 -1 -4
      vertex 0 1 -4
    endloop
  endfacet
  facet normal 0.19509 0 0.980785
    outer loop
      vertex 0 -1 -4
      vertex -1.53073 1 -3.69552
      vertex -1.53073 -1 -3.69552
    endloop
  endfacet
  facet normal 0.19509 0 -0.980785
    outer loop
      vertex -1.53073 -1 3.69552
      vertex 0 1 4
      vertex 0 -1 4
    endloop
  endfacet
  facet normal 0.19509 0 -0.980785
    outer loop
      vertex 0 1 4
      vertex -1.53073 -1 3.69552
      vertex -1.53073 1 3.69552
    endloop
  endfacet
  facet normal 0.831471 0 -0.555568
    outer loop
      vertex -2.82843 -1 2.82843
      vertex -3.69552 1 1.53073
      vertex -2.82843 1 2.82843
    endloop
  endfacet
  facet normal 0.831471 0 -0.555568
    outer loop
      vertex -3.69552 1 1.53073
      vertex -2.82843 -1 2.82843
      vertex -3.69552 -1 1.53073
    endloop
  endfacet
  facet normal 0.555568 0 -0.831471
    outer loop
      vertex -2.82843 -1 2.82843
      vertex -1.53073 1 3.69552
      vertex -1.53073 -1 3.69552
    endloop
  endfacet
  facet normal 0.555568 0 -0.831471
    outer loop
      vertex -1.53073 1 3.69552
      vertex -2.82843 -1 2.82843
      vertex -2.82843 1 2.82843
    endloop
  endfacet
  facet normal 0.980785 -0 0.19509
    outer loop
      vertex -4 -1 0
      vertex -3.69552 1 -1.53073
      vertex -4 1 0
    endloop
  endfacet
  facet normal 0.980785 0 0.19509
    outer loop
      vertex -3.69552 1 -1.53073
      vertex -4 -1 0
      vertex -3.69552 -1 -1.53073
    endloop
  endfacet
  facet normal 0.555568 0 0.831471
    outer loop
      vertex -2.82843 1 -2.82843
      vertex -1.53073 -1 -3.69552
      vertex -1.53073 1 -3.69552
    endloop
  endfacet
  facet normal 0.555568 0 0.831471
    outer loop
      vertex -1.53073 -1 -3.69552
      vertex -2.82843 1 -2.82843
      vertex -2.82843 -1 -2.82843
    endloop
  endfacet
  facet normal 0.831471 -0 0.555568
    outer loop
      vertex -3.69552 -1 -1.53073
      vertex -2.82843 1 -2.82843
      vertex -3.69552 1 -1.53073
    endloop
  endfacet
  facet normal 0.831471 0 0.555568
    outer loop
      vertex -2.82843 1 -2.82843
      vertex -3.69552 -1 -1.53073
      vertex -2.82843 -1 -2.82843
    endloop
  endfacet
  facet normal -0.555568 0 -0.831471
    outer loop
      vertex 1.53073 -1 3.69552
      vertex 2.82843 1 2.82843
      vertex 2.82843 -1 2.82843
    endloop
  endfacet
  facet normal -0.555568 0 -0.831471
    outer loop
      vertex 2.82843 1 2.82843
      vertex 1.53073 -1 3.69552
      vertex 1.53073 1 3.69552
    endloop
  endfacet
  facet normal -0.19509 0 0.980785
    outer loop
      vertex 0 1 -4
      vertex 1.53073 -1 -3.69552
      vertex 1.53073 1 -3.69552
    endloop
  endfacet
  facet normal -0.19509 0 0.980785
    outer loop
      vertex 1.53073 -1 -3.69552
      vertex 0 1 -4
      vertex 0 -1 -4
    endloop
  endfacet
  facet normal -0.980785 0 0.19509
    outer loop
      vertex 3.69552 -1 -1.53073
      vertex 4 1 0
      vertex 3.69552 1 -1.53073
    endloop
  endfacet
  facet normal -0.980785 0 0.19509
    outer loop
      vertex 4 1 0
      vertex 3.69552 -1 -1.53073
      vertex 4 -1 0
    endloop
  endfacet
  facet normal 0.980785 -0 0.195089
    outer loop
      vertex 5.54328 1.5 2.2961
      vertex 6 3.5 0
      vertex 5.54328 3.5 2.2961
    endloop
  endfacet
  facet normal 0.980785 0 0.195089
    outer loop
      vertex 6 3.5 0
      vertex 5.54328 1.5 2.2961
      vertex 6 1.5 0
    endloop
  endfacet
  facet normal 0.980785 -0 0.195089
    outer loop
      vertex 5.54328 -3.5 2.2961
      vertex 6 -1.5 0
      vertex 5.54328 -1.5 2.2961
    endloop
  endfacet
  facet normal 0.980785 0 0.195089
    outer loop
      vertex 6 -1.5 0
      vertex 5.54328 -3.5 2.2961
      vertex 6 -3.5 0
    endloop
  endfacet
  facet normal -0.980787 0 0.195081
    outer loop
      vertex -46 -3.5 0
      vertex -45.5433 3.5 2.2961
      vertex -46 3.5 0
    endloop
  endfacet
  facet normal -0.980787 0 0.195081
    outer loop
      vertex -45.5433 3.5 2.2961
      vertex -46 -3.5 0
      vertex -45.5433 -3.5 2.2961
    endloop
  endfacet
  facet normal 0 0 1
    outer loop
      vertex 0 3.5 6
      vertex -6.5 1.5 6
      vertex 0 1.5 6
    endloop
  endfacet
  facet normal 0 0 1
    outer loop
      vertex -6.5 1.5 6
      vertex -40 3.5 6
      vertex -6.5 -1.5 6
    endloop
  endfacet
  facet normal -0 0 1
    outer loop
      vertex -40 3.5 6
      vertex -6.5 1.5 6
      vertex 0 3.5 6
    endloop
  endfacet
  facet normal -0 0 1
    outer loop
      vertex -6.5 -1.5 6
      vertex 0 -3.5 6
      vertex 0 -1.5 6
    endloop
  endfacet
  facet normal 0 0 1
    outer loop
      vertex -40 -3.5 6
      vertex -6.5 -1.5 6
      vertex -40 3.5 6
    endloop
  endfacet
  facet normal 0 0 1
    outer loop
      vertex -6.5 -1.5 6
      vertex -40 -3.5 6
      vertex 0 -3.5 6
    endloop
  endfacet
  facet normal 0.195089 0 -0.980785
    outer loop
      vertex 0 -3.5 -6
      vertex 2.2961 -1.5 -5.54328
      vertex 2.2961 -3.5 -5.54328
    endloop
  endfacet
  facet normal 0.195089 0 -0.980785
    outer loop
      vertex 2.2961 -1.5 -5.54328
      vertex 0 -3.5 -6
      vertex 0 -1.5 -6
    endloop
  endfacet
  facet normal 0.195089 0 -0.980785
    outer loop
      vertex 0 1.5 -6
      vertex 2.2961 3.5 -5.54328
      vertex 2.2961 1.5 -5.54328
    endloop
  endfacet
  facet normal 0.195089 0 -0.980785
    outer loop
      vertex 2.2961 3.5 -5.54328
      vertex 0 1.5 -6
      vertex 0 3.5 -6
    endloop
  endfacet
  facet normal 0.195089 0 0.980785
    outer loop
      vertex 0 3.5 6
      vertex 2.2961 1.5 5.54328
      vertex 2.2961 3.5 5.54328
    endloop
  endfacet
  facet normal 0.195089 0 0.980785
    outer loop
      vertex 2.2961 1.5 5.54328
      vertex 0 3.5 6
      vertex 0 1.5 6
    endloop
  endfacet
  facet normal 0.195089 0 0.980785
    outer loop
      vertex 0 -1.5 6
      vertex 2.2961 -3.5 5.54328
      vertex 2.2961 -1.5 5.54328
    endloop
  endfacet
  facet normal 0.195089 0 0.980785
    outer loop
      vertex 2.2961 -3.5 5.54328
      vertex 0 -1.5 6
      vertex 0 -3.5 6
    endloop
  endfacet
  facet normal 0.831469 -0 0.555571
    outer loop
      vertex 4.24264 1.5 4.24264
      vertex 5.54328 3.5 2.2961
      vertex 4.24264 3.5 4.24264
    endloop
  endfacet
  facet normal 0.831469 0 0.555571
    outer loop
      vertex 5.54328 3.5 2.2961
      vertex 4.24264 1.5 4.24264
      vertex 5.54328 1.5 2.2961
    endloop
  endfacet
  facet normal 0.831469 -0 0.555571
    outer loop
      vertex 4.24264 -3.5 4.24264
      vertex 5.54328 -1.5 2.2961
      vertex 4.24264 -1.5 4.24264
    endloop
  endfacet
  facet normal 0.831469 0 0.555571
    outer loop
      vertex 5.54328 -1.5 2.2961
      vertex 4.24264 -3.5 4.24264
      vertex 5.54328 -3.5 2.2961
    endloop
  endfacet
  facet normal -0.555579 0 0.831464
    outer loop
      vertex -44.2426 3.5 4.24264
      vertex -42.2961 -3.5 5.54328
      vertex -42.2961 3.5 5.54328
    endloop
  endfacet
  facet normal -0.555579 0 0.831464
    outer loop
      vertex -42.2961 -3.5 5.54328
      vertex -44.2426 3.5 4.24264
      vertex -44.2426 -3.5 4.24264
    endloop
  endfacet
  facet normal -0.831457 0 0.555589
    outer loop
      vertex -45.5433 -3.5 2.2961
      vertex -44.2426 3.5 4.24264
      vertex -45.5433 3.5 2.2961
    endloop
  endfacet
  facet normal -0.831457 0 0.555589
    outer loop
      vertex -44.2426 3.5 4.24264
      vertex -45.5433 -3.5 2.2961
      vertex -44.2426 -3.5 4.24264
    endloop
  endfacet
  facet normal 0 -1 0
    outer loop
      vertex -40 -3.5 -6
      vertex -40 -3.5 6
      vertex -42.2961 -3.5 5.54328
    endloop
  endfacet
  facet normal 0 -1 0
    outer loop
      vertex -40 -3.5 6
      vertex -2.3097 -3.5 0.956708
      vertex 0 -3.5 6
    endloop
  endfacet
  facet normal 0 -1 0
    outer loop
      vertex -40 -3.5 -6
      vertex -42.2961 -3.5 5.54328
      vertex -44.2426 -3.5 4.24264
    endloop
  endfacet
  facet normal -0 -1 0
    outer loop
      vertex -0.956708 -3.5 2.3097
      vertex 0 -3.5 6
      vertex -1.76777 -3.5 1.76777
    endloop
  endfacet
  facet normal 0 -1 0
    outer loop
      vertex 0 -3.5 6
      vertex 0 -3.5 2.5
      vertex 2.2961 -3.5 5.54328
    endloop
  endfacet
  facet normal 0 -1 0
    outer loop
      vertex 0.956708 -3.5 2.3097
      vertex 2.2961 -3.5 5.54328
      vertex 0 -3.5 2.5
    endloop
  endfacet
  facet normal 0 -1 0
    outer loop
      vertex -40 -3.5 -6
      vertex -44.2426 -3.5 4.24264
      vertex -45.5433 -3.5 2.2961
    endloop
  endfacet
  facet normal -0 -1 0
    outer loop
      vertex 0 -3.5 2.5
      vertex 0 -3.5 6
      vertex -0.956708 -3.5 2.3097
    endloop
  endfacet
  facet normal 0 -1 0
    outer loop
      vertex 0 -3.5 6
      vertex -2.3097 -3.5 0.956708
      vertex -1.76777 -3.5 1.76777
    endloop
  endfacet
  facet normal 0 -1 0
    outer loop
      vertex -40 -3.5 -6
      vertex -45.5433 -3.5 2.2961
      vertex -46 -3.5 0
    endloop
  endfacet
  facet normal 0 -1 0
    outer loop
      vertex -40 -3.5 6
      vertex -40 -3.5 -6
      vertex -2.5 -3.5 0
    endloop
  endfacet
  facet normal 0 -1 0
    outer loop
      vertex -40 -3.5 6
      vertex -2.5 -3.5 0
      vertex -2.3097 -3.5 0.956708
    endloop
  endfacet
  facet normal 0 -1 -0
    outer loop
      vertex -2.5 -3.5 0
      vertex -40 -3.5 -6
      vertex -2.3097 -3.5 -0.956708
    endloop
  endfacet
  facet normal 0 -1 0
    outer loop
      vertex -40 -3.5 -6
      vertex -46 -3.5 0
      vertex -45.5433 -3.5 -2.2961
    endloop
  endfacet
  facet normal 0 -1 0
    outer loop
      vertex 0 -3.5 -6
      vertex -2.3097 -3.5 -0.956708
      vertex -40 -3.5 -6
    endloop
  endfacet
  facet normal 0 -1 0
    outer loop
      vertex -2.3097 -3.5 -0.956708
      vertex 0 -3.5 -6
      vertex -1.76777 -3.5 -1.76777
    endloop
  endfacet
  facet normal 0 -1 0
    outer loop
      vertex -40 -3.5 -6
      vertex -45.5433 -3.5 -2.2961
      vertex -44.2426 -3.5 -4.24264
    endloop
  endfacet
  facet normal 0 -1 -0
    outer loop
      vertex 2.2961 -3.5 5.54328
      vertex 0.956708 -3.5 2.3097
      vertex 4.24264 -3.5 4.24264
    endloop
  endfacet
  facet normal 0 -1 0
    outer loop
      vertex 1.76777 -3.5 1.76777
      vertex 4.24264 -3.5 4.24264
      vertex 0.956708 -3.5 2.3097
    endloop
  endfacet
  facet normal 0 -1 -0
    outer loop
      vertex 4.24264 -3.5 4.24264
      vertex 1.76777 -3.5 1.76777
      vertex 5.54328 -3.5 2.2961
    endloop
  endfacet
  facet normal 0 -1 0
    outer loop
      vertex 2.3097 -3.5 0.956708
      vertex 5.54328 -3.5 2.2961
      vertex 1.76777 -3.5 1.76777
    endloop
  endfacet
  facet normal 0 -1 0
    outer loop
      vertex 2.5 -3.5 0
      vertex 5.54328 -3.5 2.2961
      vertex 2.3097 -3.5 0.956708
    endloop
  endfacet
  facet normal 0 -1 0
    outer loop
      vertex 2.5 -3.5 0
      vertex 6 -3.5 0
      vertex 5.54328 -3.5 2.2961
    endloop
  endfacet
  facet normal 0 -1 0
    outer loop
      vertex 2.3097 -3.5 -0.956708
      vertex 6 -3.5 0
      vertex 2.5 -3.5 0
    endloop
  endfacet
  facet normal 0 -1 0
    outer loop
      vertex 5.54328 -3.5 -2.2961
      vertex 2.3097 -3.5 -0.956708
      vertex 1.76777 -3.5 -1.76777
    endloop
  endfacet
  facet normal 0 -1 0
    outer loop
      vertex 2.3097 -3.5 -0.956708
      vertex 5.54328 -3.5 -2.2961
      vertex 6 -3.5 0
    endloop
  endfacet
  facet normal 0 -1 0
    outer loop
      vertex 4.24264 -3.5 -4.24264
      vertex 1.76777 -3.5 -1.76777
      vertex 0.956708 -3.5 -2.3097
    endloop
  endfacet
  facet normal 0 -1 0
    outer loop
      vertex 2.2961 -3.5 -5.54328
      vertex 0.956708 -3.5 -2.3097
      vertex 0 -3.5 -2.5
    endloop
  endfacet
  facet normal 0 -1 0
    outer loop
      vertex -1.76777 -3.5 -1.76777
      vertex 0 -3.5 -6
      vertex -0.956708 -3.5 -2.3097
    endloop
  endfacet
  facet normal 0 -1 0
    outer loop
      vertex -0.956708 -3.5 -2.3097
      vertex 0 -3.5 -6
      vertex 0 -3.5 -2.5
    endloop
  endfacet
  facet normal 0 -1 0
    outer loop
      vertex -40 -3.5 -6
      vertex -44.2426 -3.5 -4.24264
      vertex -42.2961 -3.5 -5.54328
    endloop
  endfacet
  facet normal -0 -1 0
    outer loop
      vertex 2.2961 -3.5 -5.54328
      vertex 0 -3.5 -2.5
      vertex 0 -3.5 -6
    endloop
  endfacet
  facet normal 0 -1 0
    outer loop
      vertex 1.76777 -3.5 -1.76777
      vertex 4.24264 -3.5 -4.24264
      vertex 5.54328 -3.5 -2.2961
    endloop
  endfacet
  facet normal 0 -1 0
    outer loop
      vertex 0.956708 -3.5 -2.3097
      vertex 2.2961 -3.5 -5.54328
      vertex 4.24264 -3.5 -4.24264
    endloop
  endfacet
  facet normal -0.195089 0 0.980785
    outer loop
      vertex -42.2961 3.5 5.54328
      vertex -40 -3.5 6
      vertex -40 3.5 6
    endloop
  endfacet
  facet normal -0.195089 0 0.980785
    outer loop
      vertex -40 -3.5 6
      vertex -42.2961 3.5 5.54328
      vertex -42.2961 -3.5 5.54328
    endloop
  endfacet
  facet normal 0 0 -1
    outer loop
      vertex 0 -3.5 -6
      vertex -6.5 -1.5 -6
      vertex 0 -1.5 -6
    endloop
  endfacet
  facet normal -0 0 -1
    outer loop
      vertex -6.5 -1.5 -6
      vertex -40 -3.5 -6
      vertex -6.5 1.5 -6
    endloop
  endfacet
  facet normal 0 0 -1
    outer loop
      vertex -40 -3.5 -6
      vertex -6.5 -1.5 -6
      vertex 0 -3.5 -6
    endloop
  endfacet
  facet normal 0 0 -1
    outer loop
      vertex -6.5 1.5 -6
      vertex 0 3.5 -6
      vertex 0 1.5 -6
    endloop
  endfacet
  facet normal 0 0 -1
    outer loop
      vertex -40 3.5 -6
      vertex -6.5 1.5 -6
      vertex -40 -3.5 -6
    endloop
  endfacet
  facet normal 0 0 -1
    outer loop
      vertex -6.5 1.5 -6
      vertex -40 3.5 -6
      vertex 0 3.5 -6
    endloop
  endfacet
  facet normal 0 1 0
    outer loop
      vertex 0 3.5 2.5
      vertex 0 3.5 6
      vertex 2.2961 3.5 5.54328
    endloop
  endfacet
  facet normal 0 1 0
    outer loop
      vertex -2.3097 3.5 0.956708
      vertex 0 3.5 6
      vertex -1.76777 3.5 1.76777
    endloop
  endfacet
  facet normal 0 1 0
    outer loop
      vertex 0.956708 3.5 2.3097
      vertex 2.2961 3.5 5.54328
      vertex 4.24264 3.5 4.24264
    endloop
  endfacet
  facet normal 0 1 0
    outer loop
      vertex 0 3.5 6
      vertex -0.956708 3.5 2.3097
      vertex -1.76777 3.5 1.76777
    endloop
  endfacet
  facet normal 0 1 0
    outer loop
      vertex 0 3.5 6
      vertex 0 3.5 2.5
      vertex -0.956708 3.5 2.3097
    endloop
  endfacet
  facet normal 0 1 0
    outer loop
      vertex 2.2961 3.5 5.54328
      vertex 0.956708 3.5 2.3097
      vertex 0 3.5 2.5
    endloop
  endfacet
  facet normal 0 1 0
    outer loop
      vertex 1.76777 3.5 1.76777
      vertex 4.24264 3.5 4.24264
      vertex 5.54328 3.5 2.2961
    endloop
  endfacet
  facet normal 0 1 0
    outer loop
      vertex 4.24264 3.5 4.24264
      vertex 1.76777 3.5 1.76777
      vertex 0.956708 3.5 2.3097
    endloop
  endfacet
  facet normal 0 1 0
    outer loop
      vertex 5.54328 3.5 2.2961
      vertex 2.3097 3.5 0.956708
      vertex 1.76777 3.5 1.76777
    endloop
  endfacet
  facet normal 0 1 0
    outer loop
      vertex 6 3.5 0
      vertex 2.3097 3.5 0.956708
      vertex 5.54328 3.5 2.2961
    endloop
  endfacet
  facet normal 0 1 0
    outer loop
      vertex 6 3.5 0
      vertex 2.5 3.5 0
      vertex 2.3097 3.5 0.956708
    endloop
  endfacet
  facet normal 0 1 0
    outer loop
      vertex 6 3.5 0
      vertex 2.3097 3.5 -0.956708
      vertex 2.5 3.5 0
    endloop
  endfacet
  facet normal 0 1 -0
    outer loop
      vertex 5.54328 3.5 -2.2961
      vertex 2.3097 3.5 -0.956708
      vertex 6 3.5 0
    endloop
  endfacet
  facet normal 0 1 0
    outer loop
      vertex 2.3097 3.5 -0.956708
      vertex 5.54328 3.5 -2.2961
      vertex 1.76777 3.5 -1.76777
    endloop
  endfacet
  facet normal 0 1 -0
    outer loop
      vertex 4.24264 3.5 -4.24264
      vertex 1.76777 3.5 -1.76777
      vertex 5.54328 3.5 -2.2961
    endloop
  endfacet
  facet normal 0 1 0
    outer loop
      vertex 1.76777 3.5 -1.76777
      vertex 4.24264 3.5 -4.24264
      vertex 0.956708 3.5 -2.3097
    endloop
  endfacet
  facet normal 0 1 -0
    outer loop
      vertex 2.2961 3.5 -5.54328
      vertex 0.956708 3.5 -2.3097
      vertex 4.24264 3.5 -4.24264
    endloop
  endfacet
  facet normal 0 1 0
    outer loop
      vertex 0 3.5 6
      vertex -2.3097 3.5 0.956708
      vertex -40 3.5 6
    endloop
  endfacet
  facet normal 0 1 -0
    outer loop
      vertex -2.5 3.5 0
      vertex -40 3.5 6
      vertex -2.3097 3.5 0.956708
    endloop
  endfacet
  facet normal 0 1 0
    outer loop
      vertex -40 3.5 -6
      vertex -40 3.5 6
      vertex -2.5 3.5 0
    endloop
  endfacet
  facet normal 0 1 0
    outer loop
      vertex -42.2961 3.5 5.54328
      vertex -40 3.5 -6
      vertex -44.2426 3.5 4.24264
    endloop
  endfacet
  facet normal 0 1 0
    outer loop
      vertex -40 3.5 6
      vertex -40 3.5 -6
      vertex -42.2961 3.5 5.54328
    endloop
  endfacet
  facet normal 0 1 0
    outer loop
      vertex -44.2426 3.5 4.24264
      vertex -40 3.5 -6
      vertex -45.5433 3.5 2.2961
    endloop
  endfacet
  facet normal 0 1 0
    outer loop
      vertex -40 3.5 -6
      vertex -2.5 3.5 0
      vertex -2.3097 3.5 -0.956708
    endloop
  endfacet
  facet normal 0 1 0
    outer loop
      vertex 0 3.5 -6
      vertex -2.3097 3.5 -0.956708
      vertex -1.76777 3.5 -1.76777
    endloop
  endfacet
  facet normal 0 1 0
    outer loop
      vertex -45.5433 3.5 2.2961
      vertex -40 3.5 -6
      vertex -46 3.5 0
    endloop
  endfacet
  facet normal 0 1 0
    outer loop
      vertex 0 3.5 -6
      vertex -1.76777 3.5 -1.76777
      vertex -0.956708 3.5 -2.3097
    endloop
  endfacet
  facet normal 0 1 -0
    outer loop
      vertex 0 3.5 -6
      vertex -0.956708 3.5 -2.3097
      vertex 0 3.5 -2.5
    endloop
  endfacet
  facet normal 0 1 0
    outer loop
      vertex 0.956708 3.5 -2.3097
      vertex 2.2961 3.5 -5.54328
      vertex 0 3.5 -2.5
    endloop
  endfacet
  facet normal 0 1 0
    outer loop
      vertex -2.3097 3.5 -0.956708
      vertex 0 3.5 -6
      vertex -40 3.5 -6
    endloop
  endfacet
  facet normal 0 1 0
    outer loop
      vertex 0 3.5 -2.5
      vertex 2.2961 3.5 -5.54328
      vertex 0 3.5 -6
    endloop
  endfacet
  facet normal 0 1 0
    outer loop
      vertex -46 3.5 0
      vertex -40 3.5 -6
      vertex -45.5433 3.5 -2.2961
    endloop
  endfacet
  facet normal 0 1 0
    outer loop
      vertex -45.5433 3.5 -2.2961
      vertex -40 3.5 -6
      vertex -44.2426 3.5 -4.24264
    endloop
  endfacet
  facet normal 0 1 0
    outer loop
      vertex -44.2426 3.5 -4.24264
      vertex -40 3.5 -6
      vertex -42.2961 3.5 -5.54328
    endloop
  endfacet
  facet normal 0.555571 0 0.831469
    outer loop
      vertex 2.2961 3.5 5.54328
      vertex 4.24264 1.5 4.24264
      vertex 4.24264 3.5 4.24264
    endloop
  endfacet
  facet normal 0.555571 0 0.831469
    outer loop
      vertex 4.24264 1.5 4.24264
      vertex 2.2961 3.5 5.54328
      vertex 2.2961 1.5 5.54328
    endloop
  endfacet
  facet normal 0.555571 0 0.831469
    outer loop
      vertex 2.2961 -1.5 5.54328
      vertex 4.24264 -3.5 4.24264
      vertex 4.24264 -1.5 4.24264
    endloop
  endfacet
  facet normal 0.555571 0 0.831469
    outer loop
      vertex 4.24264 -3.5 4.24264
      vertex 2.2961 -1.5 5.54328
      vertex 2.2961 -3.5 5.54328
    endloop
  endfacet
  facet normal 0.980785 0 -0.195089
    outer loop
      vertex 6 -3.5 0
      vertex 5.54328 -1.5 -2.2961
      vertex 6 -1.5 0
    endloop
  endfacet
  facet normal 0.980785 0 -0.195089
    outer loop
      vertex 5.54328 -1.5 -2.2961
      vertex 6 -3.5 0
      vertex 5.54328 -3.5 -2.2961
    endloop
  endfacet
  facet normal 0.980785 0 -0.195089
    outer loop
      vertex 6 1.5 0
      vertex 5.54328 3.5 -2.2961
      vertex 6 3.5 0
    endloop
  endfacet
  facet normal 0.980785 0 -0.195089
    outer loop
      vertex 5.54328 3.5 -2.2961
      vertex 6 1.5 0
      vertex 5.54328 1.5 -2.2961
    endloop
  endfacet
  facet normal 0.555571 0 -0.831469
    outer loop
      vertex 2.2961 1.5 -5.54328
      vertex 4.24264 3.5 -4.24264
      vertex 4.24264 1.5 -4.24264
    endloop
  endfacet
  facet normal 0.555571 0 -0.831469
    outer loop
      vertex 4.24264 3.5 -4.24264
      vertex 2.2961 1.5 -5.54328
      vertex 2.2961 3.5 -5.54328
    endloop
  endfacet
  facet normal 0.555571 0 -0.831469
    outer loop
      vertex 2.2961 -3.5 -5.54328
      vertex 4.24264 -1.5 -4.24264
      vertex 4.24264 -3.5 -4.24264
    endloop
  endfacet
  facet normal 0.555571 0 -0.831469
    outer loop
      vertex 4.24264 -1.5 -4.24264
      vertex 2.2961 -3.5 -5.54328
      vertex 2.2961 -1.5 -5.54328
    endloop
  endfacet
  facet normal 0.831469 0 -0.555571
    outer loop
      vertex 5.54328 1.5 -2.2961
      vertex 4.24264 3.5 -4.24264
      vertex 5.54328 3.5 -2.2961
    endloop
  endfacet
  facet normal 0.831469 0 -0.555571
    outer loop
      vertex 4.24264 3.5 -4.24264
      vertex 5.54328 1.5 -2.2961
      vertex 4.24264 1.5 -4.24264
    endloop
  endfacet
  facet normal 0.831469 0 -0.555571
    outer loop
      vertex 5.54328 -3.5 -2.2961
      vertex 4.24264 -1.5 -4.24264
      vertex 5.54328 -1.5 -2.2961
    endloop
  endfacet
  facet normal 0.831469 0 -0.555571
    outer loop
      vertex 4.24264 -1.5 -4.24264
      vertex 5.54328 -3.5 -2.2961
      vertex 4.24264 -3.5 -4.24264
    endloop
  endfacet
  facet normal -0.555579 0 -0.831464
    outer loop
      vertex -44.2426 -3.5 -4.24264
      vertex -42.2961 3.5 -5.54328
      vertex -42.2961 -3.5 -5.54328
    endloop
  endfacet
  facet normal -0.555579 0 -0.831464
    outer loop
      vertex -42.2961 3.5 -5.54328
      vertex -44.2426 -3.5 -4.24264
      vertex -44.2426 3.5 -4.24264
    endloop
  endfacet
  facet normal -0.980787 0 -0.195081
    outer loop
      vertex -45.5433 -3.5 -2.2961
      vertex -46 3.5 0
      vertex -45.5433 3.5 -2.2961
    endloop
  endfacet
  facet normal -0.980787 -0 -0.195081
    outer loop
      vertex -46 3.5 0
      vertex -45.5433 -3.5 -2.2961
      vertex -46 -3.5 0
    endloop
  endfacet
  facet normal -0.195089 0 -0.980785
    outer loop
      vertex -42.2961 -3.5 -5.54328
      vertex -40 3.5 -6
      vertex -40 -3.5 -6
    endloop
  endfacet
  facet normal -0.195089 0 -0.980785
    outer loop
      vertex -40 3.5 -6
      vertex -42.2961 -3.5 -5.54328
      vertex -42.2961 3.5 -5.54328
    endloop
  endfacet
  facet normal -0.831457 0 -0.555589
    outer loop
      vertex -44.2426 -3.5 -4.24264
      vertex -45.5433 3.5 -2.2961
      vertex -44.2426 3.5 -4.24264
    endloop
  endfacet
  facet normal -0.831457 -0 -0.555589
    outer loop
      vertex -45.5433 3.5 -2.2961
      vertex -44.2426 -3.5 -4.24264
      vertex -45.5433 -3.5 -2.2961
    endloop
  endfacet
  facet normal 1 -0 0
    outer loop
      vertex -6.5 -1.5 6
      vertex -6.5 1.5 -6
      vertex -6.5 1.5 6
    endloop
  endfacet
  facet normal 1 0 0
    outer loop
      vertex -6.5 1.5 -6
      vertex -6.5 -1.5 6
      vertex -6.5 -1.5 -6
    endloop
  endfacet
  facet normal 0 1 0
    outer loop
      vertex 2.2961 -1.5 5.54328
      vertex 1.33939 -1.5 3.23358
      vertex 0 -1.5 3.5
    endloop
  endfacet
  facet normal 0 1 0
    outer loop
      vertex 4.24264 -1.5 4.24264
      vertex 2.47487 -1.5 2.47487
      vertex 1.33939 -1.5 3.23358
    endloop
  endfacet
  facet normal 0 1 0
    outer loop
      vertex 5.54328 -1.5 2.2961
      vertex 2.47487 -1.5 2.47487
      vertex 4.24264 -1.5 4.24264
    endloop
  endfacet
  facet normal 0 1 0
    outer loop
      vertex 5.54328 -1.5 2.2961
      vertex 3.23358 -1.5 1.33939
      vertex 2.47487 -1.5 2.47487
    endloop
  endfacet
  facet normal 0 1 0
    outer loop
      vertex 6 -1.5 0
      vertex 3.23358 -1.5 1.33939
      vertex 5.54328 -1.5 2.2961
    endloop
  endfacet
  facet normal 0 1 0
    outer loop
      vertex 6 -1.5 0
      vertex 3.5 -1.5 0
      vertex 3.23358 -1.5 1.33939
    endloop
  endfacet
  facet normal 0 1 0
    outer loop
      vertex 6 -1.5 0
      vertex 3.23358 -1.5 -1.33939
      vertex 3.5 -1.5 0
    endloop
  endfacet
  facet normal 0 1 -0
    outer loop
      vertex 5.54328 -1.5 -2.2961
      vertex 3.23358 -1.5 -1.33939
      vertex 6 -1.5 0
    endloop
  endfacet
  facet normal 0 1 0
    outer loop
      vertex 5.54328 -1.5 -2.2961
      vertex 2.47487 -1.5 -2.47487
      vertex 3.23358 -1.5 -1.33939
    endloop
  endfacet
  facet normal 0 1 -0
    outer loop
      vertex 4.24264 -1.5 -4.24264
      vertex 2.47487 -1.5 -2.47487
      vertex 5.54328 -1.5 -2.2961
    endloop
  endfacet
  facet normal 0 1 -0
    outer loop
      vertex 2.2961 -1.5 -5.54328
      vertex 1.33939 -1.5 -3.23358
      vertex 4.24264 -1.5 -4.24264
    endloop
  endfacet
  facet normal 0 1 0
    outer loop
      vertex 2.47487 -1.5 -2.47487
      vertex 4.24264 -1.5 -4.24264
      vertex 1.33939 -1.5 -3.23358
    endloop
  endfacet
  facet normal 0 1 0
    outer loop
      vertex 0 -1.5 3.5
      vertex 0 -1.5 6
      vertex 2.2961 -1.5 5.54328
    endloop
  endfacet
  facet normal 0 1 0
    outer loop
      vertex 1.33939 -1.5 3.23358
      vertex 2.2961 -1.5 5.54328
      vertex 4.24264 -1.5 4.24264
    endloop
  endfacet
  facet normal 0 1 0
    outer loop
      vertex 0 -1.5 6
      vertex 0 -1.5 3.5
      vertex -1.33939 -1.5 3.23358
    endloop
  endfacet
  facet normal 0 1 0
    outer loop
      vertex 0 -1.5 6
      vertex -1.33939 -1.5 3.23358
      vertex -6.5 -1.5 6
    endloop
  endfacet
  facet normal 0 1 -0
    outer loop
      vertex -2.47487 -1.5 2.47487
      vertex -6.5 -1.5 6
      vertex -1.33939 -1.5 3.23358
    endloop
  endfacet
  facet normal 0 1 -0
    outer loop
      vertex -3.23358 -1.5 1.33939
      vertex -6.5 -1.5 6
      vertex -2.47487 -1.5 2.47487
    endloop
  endfacet
  facet normal 0 1 -0
    outer loop
      vertex -3.5 -1.5 0
      vertex -6.5 -1.5 6
      vertex -3.23358 -1.5 1.33939
    endloop
  endfacet
  facet normal 0 1 0
    outer loop
      vertex -6.5 -1.5 -6
      vertex -3.5 -1.5 0
      vertex -3.23358 -1.5 -1.33939
    endloop
  endfacet
  facet normal 0 1 0
    outer loop
      vertex 1.33939 -1.5 -3.23358
      vertex 2.2961 -1.5 -5.54328
      vertex 0 -1.5 -3.5
    endloop
  endfacet
  facet normal 0 1 0
    outer loop
      vertex 0 -1.5 -6
      vertex 0 -1.5 -3.5
      vertex 2.2961 -1.5 -5.54328
    endloop
  endfacet
  facet normal 0 1 0
    outer loop
      vertex 0 -1.5 -3.5
      vertex 0 -1.5 -6
      vertex -1.33939 -1.5 -3.23358
    endloop
  endfacet
  facet normal 0 1 0
    outer loop
      vertex -6.5 -1.5 -6
      vertex -1.33939 -1.5 -3.23358
      vertex 0 -1.5 -6
    endloop
  endfacet
  facet normal 0 1 0
    outer loop
      vertex -3.5 -1.5 0
      vertex -6.5 -1.5 -6
      vertex -6.5 -1.5 6
    endloop
  endfacet
  facet normal 0 1 0
    outer loop
      vertex -2.47487 -1.5 -2.47487
      vertex -6.5 -1.5 -6
      vertex -3.23358 -1.5 -1.33939
    endloop
  endfacet
  facet normal 0 1 0
    outer loop
      vertex -1.33939 -1.5 -3.23358
      vertex -6.5 -1.5 -6
      vertex -2.47487 -1.5 -2.47487
    endloop
  endfacet
  facet normal 0 -1 0
    outer loop
      vertex -1.33939 1.5 3.23358
      vertex 0 1.5 6
      vertex -6.5 1.5 6
    endloop
  endfacet
  facet normal -0 -1 0
    outer loop
      vertex 0 1.5 3.5
      vertex 0 1.5 6
      vertex -1.33939 1.5 3.23358
    endloop
  endfacet
  facet normal 0 -1 0
    outer loop
      vertex 1.33939 1.5 3.23358
      vertex 2.2961 1.5 5.54328
      vertex 0 1.5 3.5
    endloop
  endfacet
  facet normal 0 -1 0
    outer loop
      vertex 0 1.5 6
      vertex 0 1.5 3.5
      vertex 2.2961 1.5 5.54328
    endloop
  endfacet
  facet normal 0 -1 0
    outer loop
      vertex -6.5 1.5 6
      vertex -2.47487 1.5 2.47487
      vertex -1.33939 1.5 3.23358
    endloop
  endfacet
  facet normal 0 -1 0
    outer loop
      vertex -6.5 1.5 6
      vertex -3.23358 1.5 1.33939
      vertex -2.47487 1.5 2.47487
    endloop
  endfacet
  facet normal 0 -1 0
    outer loop
      vertex -6.5 1.5 6
      vertex -3.5 1.5 0
      vertex -3.23358 1.5 1.33939
    endloop
  endfacet
  facet normal 0 -1 0
    outer loop
      vertex -6.5 1.5 -6
      vertex -3.5 1.5 0
      vertex -6.5 1.5 6
    endloop
  endfacet
  facet normal 0 -1 0
    outer loop
      vertex 1.33939 1.5 -3.23358
      vertex 2.2961 1.5 -5.54328
      vertex 4.24264 1.5 -4.24264
    endloop
  endfacet
  facet normal 0 -1 0
    outer loop
      vertex 0 1.5 -6
      vertex 0 1.5 -3.5
      vertex -1.33939 1.5 -3.23358
    endloop
  endfacet
  facet normal 0 -1 -0
    outer loop
      vertex -3.5 1.5 0
      vertex -6.5 1.5 -6
      vertex -3.23358 1.5 -1.33939
    endloop
  endfacet
  facet normal 0 -1 0
    outer loop
      vertex -6.5 1.5 -6
      vertex -2.47487 1.5 -2.47487
      vertex -3.23358 1.5 -1.33939
    endloop
  endfacet
  facet normal 0 -1 0
    outer loop
      vertex -6.5 1.5 -6
      vertex -1.33939 1.5 -3.23358
      vertex -2.47487 1.5 -2.47487
    endloop
  endfacet
  facet normal 0 -1 0
    outer loop
      vertex 0 1.5 -6
      vertex -1.33939 1.5 -3.23358
      vertex -6.5 1.5 -6
    endloop
  endfacet
  facet normal 0 -1 0
    outer loop
      vertex 0 1.5 -3.5
      vertex 0 1.5 -6
      vertex 2.2961 1.5 -5.54328
    endloop
  endfacet
  facet normal 0 -1 -0
    outer loop
      vertex 2.2961 1.5 5.54328
      vertex 1.33939 1.5 3.23358
      vertex 4.24264 1.5 4.24264
    endloop
  endfacet
  facet normal 0 -1 0
    outer loop
      vertex 2.47487 1.5 2.47487
      vertex 4.24264 1.5 4.24264
      vertex 1.33939 1.5 3.23358
    endloop
  endfacet
  facet normal 0 -1 0
    outer loop
      vertex 2.47487 1.5 2.47487
      vertex 5.54328 1.5 2.2961
      vertex 4.24264 1.5 4.24264
    endloop
  endfacet
  facet normal 0 -1 0
    outer loop
      vertex 3.23358 1.5 1.33939
      vertex 5.54328 1.5 2.2961
      vertex 2.47487 1.5 2.47487
    endloop
  endfacet
  facet normal 0 -1 0
    outer loop
      vertex 3.5 1.5 0
      vertex 5.54328 1.5 2.2961
      vertex 3.23358 1.5 1.33939
    endloop
  endfacet
  facet normal 0 -1 0
    outer loop
      vertex 3.5 1.5 0
      vertex 6 1.5 0
      vertex 5.54328 1.5 2.2961
    endloop
  endfacet
  facet normal 0 -1 0
    outer loop
      vertex 3.23358 1.5 -1.33939
      vertex 6 1.5 0
      vertex 3.5 1.5 0
    endloop
  endfacet
  facet normal 0 -1 0
    outer loop
      vertex 3.23358 1.5 -1.33939
      vertex 5.54328 1.5 -2.2961
      vertex 6 1.5 0
    endloop
  endfacet
  facet normal 0 -1 0
    outer loop
      vertex 2.47487 1.5 -2.47487
      vertex 5.54328 1.5 -2.2961
      vertex 3.23358 1.5 -1.33939
    endloop
  endfacet
  facet normal 0 -1 0
    outer loop
      vertex 4.24264 1.5 -4.24264
      vertex 2.47487 1.5 -2.47487
      vertex 1.33939 1.5 -3.23358
    endloop
  endfacet
  facet normal 0 -1 0
    outer loop
      vertex 2.47487 1.5 -2.47487
      vertex 4.24264 1.5 -4.24264
      vertex 5.54328 1.5 -2.2961
    endloop
  endfacet
  facet normal 0 -1 0
    outer loop
      vertex 2.2961 1.5 -5.54328
      vertex 1.33939 1.5 -3.23358
      vertex 0 1.5 -3.5
    endloop
  endfacet
  facet normal 0.980785 -0 0.195089
    outer loop
      vertex 3.23358 -1.5 1.33939
      vertex 3.5 1.5 0
      vertex 3.23358 1.5 1.33939
    endloop
  endfacet
  facet normal 0.980785 0 0.195089
    outer loop
      vertex 3.5 1.5 0
      vertex 3.23358 -1.5 1.33939
      vertex 3.5 -1.5 0
    endloop
  endfacet
  facet normal -0.980785 0 0.195089
    outer loop
      vertex -3.5 -1.5 0
      vertex -3.23358 1.5 1.33939
      vertex -3.5 1.5 0
    endloop
  endfacet
  facet normal -0.980785 0 0.195089
    outer loop
      vertex -3.23358 1.5 1.33939
      vertex -3.5 -1.5 0
      vertex -3.23358 -1.5 1.33939
    endloop
  endfacet
  facet normal 0.195089 0 0.980785
    outer loop
      vertex 0 1.5 3.5
      vertex 1.33939 -1.5 3.23358
      vertex 1.33939 1.5 3.23358
    endloop
  endfacet
  facet normal 0.195089 0 0.980785
    outer loop
      vertex 1.33939 -1.5 3.23358
      vertex 0 1.5 3.5
      vertex 0 -1.5 3.5
    endloop
  endfacet
  facet normal 0.831467 -0 0.555574
    outer loop
      vertex 2.47487 -1.5 2.47487
      vertex 3.23358 1.5 1.33939
      vertex 2.47487 1.5 2.47487
    endloop
  endfacet
  facet normal 0.831467 0 0.555574
    outer loop
      vertex 3.23358 1.5 1.33939
      vertex 2.47487 -1.5 2.47487
      vertex 3.23358 -1.5 1.33939
    endloop
  endfacet
  facet normal 0.195089 0 -0.980785
    outer loop
      vertex 0 -1.5 -3.5
      vertex 1.33939 1.5 -3.23358
      vertex 1.33939 -1.5 -3.23358
    endloop
  endfacet
  facet normal 0.195089 0 -0.980785
    outer loop
      vertex 1.33939 1.5 -3.23358
      vertex 0 -1.5 -3.5
      vertex 0 1.5 -3.5
    endloop
  endfacet
  facet normal -0.195089 0 -0.980785
    outer loop
      vertex -1.33939 -1.5 -3.23358
      vertex 0 1.5 -3.5
      vertex 0 -1.5 -3.5
    endloop
  endfacet
  facet normal -0.195089 0 -0.980785
    outer loop
      vertex 0 1.5 -3.5
      vertex -1.33939 -1.5 -3.23358
      vertex -1.33939 1.5 -3.23358
    endloop
  endfacet
  facet normal -0.195089 0 0.980785
    outer loop
      vertex -1.33939 1.5 3.23358
      vertex 0 -1.5 3.5
      vertex 0 1.5 3.5
    endloop
  endfacet
  facet normal -0.195089 0 0.980785
    outer loop
      vertex 0 -1.5 3.5
      vertex -1.33939 1.5 3.23358
      vertex -1.33939 -1.5 3.23358
    endloop
  endfacet
  facet normal -0.555574 0 0.831467
    outer loop
      vertex -2.47487 1.5 2.47487
      vertex -1.33939 -1.5 3.23358
      vertex -1.33939 1.5 3.23358
    endloop
  endfacet
  facet normal -0.555574 0 0.831467
    outer loop
      vertex -1.33939 -1.5 3.23358
      vertex -2.47487 1.5 2.47487
      vertex -2.47487 -1.5 2.47487
    endloop
  endfacet
  facet normal -0.980785 0 -0.195089
    outer loop
      vertex -3.23358 -1.5 -1.33939
      vertex -3.5 1.5 0
      vertex -3.23358 1.5 -1.33939
    endloop
  endfacet
  facet normal -0.980785 -0 -0.195089
    outer loop
      vertex -3.5 1.5 0
      vertex -3.23358 -1.5 -1.33939
      vertex -3.5 -1.5 0
    endloop
  endfacet
  facet normal -0.555574 0 -0.831467
    outer loop
      vertex -2.47487 -1.5 -2.47487
      vertex -1.33939 1.5 -3.23358
      vertex -1.33939 -1.5 -3.23358
    endloop
  endfacet
  facet normal -0.555574 0 -0.831467
    outer loop
      vertex -1.33939 1.5 -3.23358
      vertex -2.47487 -1.5 -2.47487
      vertex -2.47487 1.5 -2.47487
    endloop
  endfacet
  facet normal 0.555574 0 0.831467
    outer loop
      vertex 1.33939 1.5 3.23358
      vertex 2.47487 -1.5 2.47487
      vertex 2.47487 1.5 2.47487
    endloop
  endfacet
  facet normal 0.555574 0 0.831467
    outer loop
      vertex 2.47487 -1.5 2.47487
      vertex 1.33939 1.5 3.23358
      vertex 1.33939 -1.5 3.23358
    endloop
  endfacet
  facet normal -0.831467 0 0.555574
    outer loop
      vertex -3.23358 -1.5 1.33939
      vertex -2.47487 1.5 2.47487
      vertex -3.23358 1.5 1.33939
    endloop
  endfacet
  facet normal -0.831467 0 0.555574
    outer loop
      vertex -2.47487 1.5 2.47487
      vertex -3.23358 -1.5 1.33939
      vertex -2.47487 -1.5 2.47487
    endloop
  endfacet
  facet normal 0.831467 0 -0.555574
    outer loop
      vertex 3.23358 -1.5 -1.33939
      vertex 2.47487 1.5 -2.47487
      vertex 3.23358 1.5 -1.33939
    endloop
  endfacet
  facet normal 0.831467 0 -0.555574
    outer loop
      vertex 2.47487 1.5 -2.47487
      vertex 3.23358 -1.5 -1.33939
      vertex 2.47487 -1.5 -2.47487
    endloop
  endfacet
  facet normal 0.555574 0 -0.831467
    outer loop
      vertex 1.33939 -1.5 -3.23358
      vertex 2.47487 1.5 -2.47487
      vertex 2.47487 -1.5 -2.47487
    endloop
  endfacet
  facet normal 0.555574 0 -0.831467
    outer loop
      vertex 2.47487 1.5 -2.47487
      vertex 1.33939 -1.5 -3.23358
      vertex 1.33939 1.5 -3.23358
    endloop
  endfacet
  facet normal 0.980785 0 -0.195089
    outer loop
      vertex 3.5 -1.5 0
      vertex 3.23358 1.5 -1.33939
      vertex 3.5 1.5 0
    endloop
  endfacet
  facet normal 0.980785 0 -0.195089
    outer loop
      vertex 3.23358 1.5 -1.33939
      vertex 3.5 -1.5 0
      vertex 3.23358 -1.5 -1.33939
    endloop
  endfacet
  facet normal -0.831467 0 -0.555574
    outer loop
      vertex -2.47487 -1.5 -2.47487
      vertex -3.23358 1.5 -1.33939
      vertex -2.47487 1.5 -2.47487
    endloop
  endfacet
  facet normal -0.831467 -0 -0.555574
    outer loop
      vertex -3.23358 1.5 -1.33939
      vertex -2.47487 -1.5 -2.47487
      vertex -3.23358 -1.5 -1.33939
    endloop
  endfacet
  facet normal -0.980785 0 -0.195089
    outer loop
      vertex 2.5 -3.5 0
      vertex 2.3097 3.5 0.956708
      vertex 2.5 3.5 0
    endloop
  endfacet
  facet normal -0.980785 -0 -0.195089
    outer loop
      vertex 2.3097 3.5 0.956708
      vertex 2.5 -3.5 0
      vertex 2.3097 -3.5 0.956708
    endloop
  endfacet
  facet normal 0.980785 0 -0.195089
    outer loop
      vertex -2.3097 -3.5 0.956708
      vertex -2.5 3.5 0
      vertex -2.3097 3.5 0.956708
    endloop
  endfacet
  facet normal 0.980785 0 -0.195089
    outer loop
      vertex -2.5 3.5 0
      vertex -2.3097 -3.5 0.956708
      vertex -2.5 -3.5 0
    endloop
  endfacet
  facet normal -0.195089 0 -0.980785
    outer loop
      vertex 0 -3.5 2.5
      vertex 0.956708 3.5 2.3097
      vertex 0.956708 -3.5 2.3097
    endloop
  endfacet
  facet normal -0.195089 0 -0.980785
    outer loop
      vertex 0.956708 3.5 2.3097
      vertex 0 -3.5 2.5
      vertex 0 3.5 2.5
    endloop
  endfacet
  facet normal -0.831472 0 -0.555567
    outer loop
      vertex 2.3097 -3.5 0.956708
      vertex 1.76777 3.5 1.76777
      vertex 2.3097 3.5 0.956708
    endloop
  endfacet
  facet normal -0.831472 -0 -0.555567
    outer loop
      vertex 1.76777 3.5 1.76777
      vertex 2.3097 -3.5 0.956708
      vertex 1.76777 -3.5 1.76777
    endloop
  endfacet
  facet normal 0.195089 0 0.980785
    outer loop
      vertex -0.956708 3.5 -2.3097
      vertex 0 -3.5 -2.5
      vertex 0 3.5 -2.5
    endloop
  endfacet
  facet normal 0.195089 0 0.980785
    outer loop
      vertex 0 -3.5 -2.5
      vertex -0.956708 3.5 -2.3097
      vertex -0.956708 -3.5 -2.3097
    endloop
  endfacet
  facet normal -0.555567 0 -0.831472
    outer loop
      vertex 0.956708 -3.5 2.3097
      vertex 1.76777 3.5 1.76777
      vertex 1.76777 -3.5 1.76777
    endloop
  endfacet
  facet normal -0.555567 0 -0.831472
    outer loop
      vertex 1.76777 3.5 1.76777
      vertex 0.956708 -3.5 2.3097
      vertex 0.956708 3.5 2.3097
    endloop
  endfacet
  facet normal 0.555567 0 -0.831472
    outer loop
      vertex -1.76777 -3.5 1.76777
      vertex -0.956708 3.5 2.3097
      vertex -0.956708 -3.5 2.3097
    endloop
  endfacet
  facet normal 0.555567 0 -0.831472
    outer loop
      vertex -0.956708 3.5 2.3097
      vertex -1.76777 -3.5 1.76777
      vertex -1.76777 3.5 1.76777
    endloop
  endfacet
  facet normal 0.831472 0 -0.555567
    outer loop
      vertex -1.76777 -3.5 1.76777
      vertex -2.3097 3.5 0.956708
      vertex -1.76777 3.5 1.76777
    endloop
  endfacet
  facet normal 0.831472 0 -0.555567
    outer loop
      vertex -2.3097 3.5 0.956708
      vertex -1.76777 -3.5 1.76777
      vertex -2.3097 -3.5 0.956708
    endloop
  endfacet
  facet normal 0.195089 0 -0.980785
    outer loop
      vertex -0.956708 -3.5 2.3097
      vertex 0 3.5 2.5
      vertex 0 -3.5 2.5
    endloop
  endfacet
  facet normal 0.195089 0 -0.980785
    outer loop
      vertex 0 3.5 2.5
      vertex -0.956708 -3.5 2.3097
      vertex -0.956708 3.5 2.3097
    endloop
  endfacet
  facet normal 0.555567 0 0.831472
    outer loop
      vertex -1.76777 3.5 -1.76777
      vertex -0.956708 -3.5 -2.3097
      vertex -0.956708 3.5 -2.3097
    endloop
  endfacet
  facet normal 0.555567 0 0.831472
    outer loop
      vertex -0.956708 -3.5 -2.3097
      vertex -1.76777 3.5 -1.76777
      vertex -1.76777 -3.5 -1.76777
    endloop
  endfacet
  facet normal 0.980785 -0 0.195089
    outer loop
      vertex -2.5 -3.5 0
      vertex -2.3097 3.5 -0.956708
      vertex -2.5 3.5 0
    endloop
  endfacet
  facet normal 0.980785 0 0.195089
    outer loop
      vertex -2.3097 3.5 -0.956708
      vertex -2.5 -3.5 0
      vertex -2.3097 -3.5 -0.956708
    endloop
  endfacet
  facet normal -0.980785 0 0.195089
    outer loop
      vertex 2.3097 -3.5 -0.956708
      vertex 2.5 3.5 0
      vertex 2.3097 3.5 -0.956708
    endloop
  endfacet
  facet normal -0.980785 0 0.195089
    outer loop
      vertex 2.5 3.5 0
      vertex 2.3097 -3.5 -0.956708
      vertex 2.5 -3.5 0
    endloop
  endfacet
  facet normal -0.555567 0 0.831472
    outer loop
      vertex 0.956708 3.5 -2.3097
      vertex 1.76777 -3.5 -1.76777
      vertex 1.76777 3.5 -1.76777
    endloop
  endfacet
  facet normal -0.555567 0 0.831472
    outer loop
      vertex 1.76777 -3.5 -1.76777
      vertex 0.956708 3.5 -2.3097
      vertex 0.956708 -3.5 -2.3097
    endloop
  endfacet
  facet normal -0.195089 0 0.980785
    outer loop
      vertex 0 3.5 -2.5
      vertex 0.956708 -3.5 -2.3097
      vertex 0.956708 3.5 -2.3097
    endloop
  endfacet
  facet normal -0.195089 0 0.980785
    outer loop
      vertex 0.956708 -3.5 -2.3097
      vertex 0 3.5 -2.5
      vertex 0 -3.5 -2.5
    endloop
  endfacet
  facet normal -0.831472 0 0.555567
    outer loop
      vertex 1.76777 -3.5 -1.76777
      vertex 2.3097 3.5 -0.956708
      vertex 1.76777 3.5 -1.76777
    endloop
  endfacet
  facet normal -0.831472 0 0.555567
    outer loop
      vertex 2.3097 3.5 -0.956708
      vertex 1.76777 -3.5 -1.76777
      vertex 2.3097 -3.5 -0.956708
    endloop
  endfacet
  facet normal 0.831472 -0 0.555567
    outer loop
      vertex -2.3097 -3.5 -0.956708
      vertex -1.76777 3.5 -1.76777
      vertex -2.3097 3.5 -0.956708
    endloop
  endfacet
  facet normal 0.831472 0 0.555567
    outer loop
      vertex -1.76777 3.5 -1.76777
      vertex -2.3097 -3.5 -0.956708
      vertex -1.76777 -3.5 -1.76777
    endloop
  endfacet
  facet normal -0.980785 0 0.195089
    outer loop
      vertex -6 -9 0
      vertex -5.54328 -5 2.2961
      vertex -6 -5 0
    endloop
  endfacet
  facet normal -0.980785 0 0.195089
    outer loop
      vertex -5.54328 -5 2.2961
      vertex -6 -9 0
      vertex -5.54328 -9 2.2961
    endloop
  endfacet
  facet normal 0.980787 0 -0.195081
    outer loop
      vertex 26 -9 0
      vertex 25.5433 -5 -2.2961
      vertex 26 -5 0
    endloop
  endfacet
  facet normal 0.980787 0 -0.195081
    outer loop
      vertex 25.5433 -5 -2.2961
      vertex 26 -9 0
      vertex 25.5433 -9 -2.2961
    endloop
  endfacet
  facet normal -0.831469 0 0.555571
    outer loop
      vertex -5.54328 -9 2.2961
      vertex -4.24264 -5 4.24264
      vertex -5.54328 -5 2.2961
    endloop
  endfacet
  facet normal -0.831469 0 0.555571
    outer loop
      vertex -4.24264 -5 4.24264
      vertex -5.54328 -9 2.2961
      vertex -4.24264 -9 4.24264
    endloop
  endfacet
  facet normal -0.195089 0 -0.980785
    outer loop
      vertex -2.2961 -9 -5.54328
      vertex 0 -5 -6
      vertex 0 -9 -6
    endloop
  endfacet
  facet normal -0.195089 0 -0.980785
    outer loop
      vertex 0 -5 -6
      vertex -2.2961 -9 -5.54328
      vertex -2.2961 -5 -5.54328
    endloop
  endfacet
  facet normal 0 1 0
    outer loop
      vertex 20 -5 -6
      vertex 20 -5 6
      vertex 22.2961 -5 5.54328
    endloop
  endfacet
  facet normal 0 1 0
    outer loop
      vertex 20 -5 6
      vertex 1.84776 -5 0.765367
      vertex 0 -5 6
    endloop
  endfacet
  facet normal 0 1 0
    outer loop
      vertex 20 -5 -6
      vertex 22.2961 -5 5.54328
      vertex 24.2426 -5 4.24264
    endloop
  endfacet
  facet normal -0 1 -0
    outer loop
      vertex 0.765367 -5 1.84776
      vertex 0 -5 6
      vertex 1.41421 -5 1.41421
    endloop
  endfacet
  facet normal 0 1 0
    outer loop
      vertex 20 -5 -6
      vertex 24.2426 -5 4.24264
      vertex 25.5433 -5 2.2961
    endloop
  endfacet
  facet normal 0 1 0
    outer loop
      vertex 0 -5 6
      vertex 0 -5 2
      vertex -2.2961 -5 5.54328
    endloop
  endfacet
  facet normal 0 1 0
    outer loop
      vertex -2.2961 -5 5.54328
      vertex -0.765367 -5 1.84776
      vertex -4.24264 -5 4.24264
    endloop
  endfacet
  facet normal 0 1 -0
    outer loop
      vertex -0.765367 -5 1.84776
      vertex -2.2961 -5 5.54328
      vertex 0 -5 2
    endloop
  endfacet
  facet normal -0 1 0
    outer loop
      vertex 0 -5 2
      vertex 0 -5 6
      vertex 0.765367 -5 1.84776
    endloop
  endfacet
  facet normal 0 1 0
    outer loop
      vertex 0 -5 6
      vertex 1.84776 -5 0.765367
      vertex 1.41421 -5 1.41421
    endloop
  endfacet
  facet normal 0 1 0
    outer loop
      vertex 20 -5 -6
      vertex 25.5433 -5 2.2961
      vertex 26 -5 0
    endloop
  endfacet
  facet normal 0 1 0
    outer loop
      vertex 20 -5 6
      vertex 20 -5 -6
      vertex 2 -5 0
    endloop
  endfacet
  facet normal 0 1 0
    outer loop
      vertex 20 -5 6
      vertex 2 -5 0
      vertex 1.84776 -5 0.765367
    endloop
  endfacet
  facet normal 0 1 0
    outer loop
      vertex 2 -5 0
      vertex 20 -5 -6
      vertex 1.84776 -5 -0.765367
    endloop
  endfacet
  facet normal 0 1 0
    outer loop
      vertex 1.84776 -5 -0.765367
      vertex 20 -5 -6
      vertex 1.41421 -5 -1.41421
    endloop
  endfacet
  facet normal 0 1 0
    outer loop
      vertex 0 -5 -6
      vertex 1.41421 -5 -1.41421
      vertex 20 -5 -6
    endloop
  endfacet
  facet normal 0 1 0
    outer loop
      vertex 20 -5 -6
      vertex 26 -5 0
      vertex 25.5433 -5 -2.2961
    endloop
  endfacet
  facet normal 0 1 -0
    outer loop
      vertex -1.41421 -5 1.41421
      vertex -4.24264 -5 4.24264
      vertex -0.765367 -5 1.84776
    endloop
  endfacet
  facet normal 0 1 0
    outer loop
      vertex -4.24264 -5 4.24264
      vertex -1.41421 -5 1.41421
      vertex -5.54328 -5 2.2961
    endloop
  endfacet
  facet normal 0 1 -0
    outer loop
      vertex -1.84776 -5 0.765367
      vertex -5.54328 -5 2.2961
      vertex -1.41421 -5 1.41421
    endloop
  endfacet
  facet normal 0 1 -0
    outer loop
      vertex -2 -5 0
      vertex -5.54328 -5 2.2961
      vertex -1.84776 -5 0.765367
    endloop
  endfacet
  facet normal 0 1 0
    outer loop
      vertex -2 -5 0
      vertex -6 -5 0
      vertex -5.54328 -5 2.2961
    endloop
  endfacet
  facet normal 0 1 0
    outer loop
      vertex -1.84776 -5 -0.765367
      vertex -6 -5 0
      vertex -2 -5 0
    endloop
  endfacet
  facet normal 0 1 0
    outer loop
      vertex -5.54328 -5 -2.2961
      vertex -1.84776 -5 -0.765367
      vertex -1.41421 -5 -1.41421
    endloop
  endfacet
  facet normal 0 1 0
    outer loop
      vertex -4.24264 -5 -4.24264
      vertex -1.41421 -5 -1.41421
      vertex -0.765367 -5 -1.84776
    endloop
  endfacet
  facet normal 0 1 0
    outer loop
      vertex -1.84776 -5 -0.765367
      vertex -5.54328 -5 -2.2961
      vertex -6 -5 0
    endloop
  endfacet
  facet normal 0 1 0
    outer loop
      vertex -2.2961 -5 -5.54328
      vertex -0.765367 -5 -1.84776
      vertex 0 -5 -2
    endloop
  endfacet
  facet normal 0 1 0
    outer loop
      vertex 1.41421 -5 -1.41421
      vertex 0 -5 -6
      vertex 0.765367 -5 -1.84776
    endloop
  endfacet
  facet normal 0 1 0
    outer loop
      vertex 20 -5 -6
      vertex 25.5433 -5 -2.2961
      vertex 24.2426 -5 -4.24264
    endloop
  endfacet
  facet normal 0 1 0
    outer loop
      vertex 0.765367 -5 -1.84776
      vertex 0 -5 -6
      vertex 0 -5 -2
    endloop
  endfacet
  facet normal 0 1 0
    outer loop
      vertex 20 -5 -6
      vertex 24.2426 -5 -4.24264
      vertex 22.2961 -5 -5.54328
    endloop
  endfacet
  facet normal -0 1 0
    outer loop
      vertex -2.2961 -5 -5.54328
      vertex 0 -5 -2
      vertex 0 -5 -6
    endloop
  endfacet
  facet normal 0 1 0
    outer loop
      vertex -1.41421 -5 -1.41421
      vertex -4.24264 -5 -4.24264
      vertex -5.54328 -5 -2.2961
    endloop
  endfacet
  facet normal 0 1 0
    outer loop
      vertex -0.765367 -5 -1.84776
      vertex -2.2961 -5 -5.54328
      vertex -4.24264 -5 -4.24264
    endloop
  endfacet
  facet normal 0 0 -1
    outer loop
      vertex 0 -9 -6
      vertex 20 -5 -6
      vertex 20 -9 -6
    endloop
  endfacet
  facet normal -0 0 -1
    outer loop
      vertex 20 -5 -6
      vertex 0 -9 -6
      vertex 0 -5 -6
    endloop
  endfacet
  facet normal -0.980785 0 -0.195089
    outer loop
      vertex -5.54328 -9 -2.2961
      vertex -6 -5 0
      vertex -5.54328 -5 -2.2961
    endloop
  endfacet
  facet normal -0.980785 -0 -0.195089
    outer loop
      vertex -6 -5 0
      vertex -5.54328 -9 -2.2961
      vertex -6 -9 0
    endloop
  endfacet
  facet normal 0 -1 0
    outer loop
      vertex 0 -9 -6
      vertex 0 -9 6
      vertex -2.2961 -9 5.54328
    endloop
  endfacet
  facet normal 0 -1 0
    outer loop
      vertex 0 -9 6
      vertex 0 -9 -6
      vertex 20 -9 6
    endloop
  endfacet
  facet normal 0 -1 0
    outer loop
      vertex 0 -9 -6
      vertex -2.2961 -9 5.54328
      vertex -4.24264 -9 4.24264
    endloop
  endfacet
  facet normal 0 -1 0
    outer loop
      vertex 20 -9 -6
      vertex 20 -9 6
      vertex 0 -9 -6
    endloop
  endfacet
  facet normal 0 -1 0
    outer loop
      vertex 0 -9 -6
      vertex -4.24264 -9 4.24264
      vertex -5.54328 -9 2.2961
    endloop
  endfacet
  facet normal 0 -1 0
    outer loop
      vertex 20 -9 6
      vertex 20 -9 -6
      vertex 22.2961 -9 5.54328
    endloop
  endfacet
  facet normal 0 -1 0
    outer loop
      vertex 0 -9 -6
      vertex -5.54328 -9 2.2961
      vertex -6 -9 0
    endloop
  endfacet
  facet normal 0 -1 -0
    outer loop
      vertex 22.2961 -9 5.54328
      vertex 20 -9 -6
      vertex 24.2426 -9 4.24264
    endloop
  endfacet
  facet normal 0 -1 0
    outer loop
      vertex 0 -9 -6
      vertex -6 -9 0
      vertex -5.54328 -9 -2.2961
    endloop
  endfacet
  facet normal 0 -1 -0
    outer loop
      vertex 24.2426 -9 4.24264
      vertex 20 -9 -6
      vertex 25.5433 -9 2.2961
    endloop
  endfacet
  facet normal 0 -1 0
    outer loop
      vertex 0 -9 -6
      vertex -5.54328 -9 -2.2961
      vertex -4.24264 -9 -4.24264
    endloop
  endfacet
  facet normal 0 -1 -0
    outer loop
      vertex 25.5433 -9 2.2961
      vertex 20 -9 -6
      vertex 26 -9 0
    endloop
  endfacet
  facet normal 0 -1 0
    outer loop
      vertex 0 -9 -6
      vertex -4.24264 -9 -4.24264
      vertex -2.2961 -9 -5.54328
    endloop
  endfacet
  facet normal 0 -1 0
    outer loop
      vertex 26 -9 0
      vertex 20 -9 -6
      vertex 25.5433 -9 -2.2961
    endloop
  endfacet
  facet normal 0 -1 0
    outer loop
      vertex 25.5433 -9 -2.2961
      vertex 20 -9 -6
      vertex 24.2426 -9 -4.24264
    endloop
  endfacet
  facet normal 0 -1 0
    outer loop
      vertex 24.2426 -9 -4.24264
      vertex 20 -9 -6
      vertex 22.2961 -9 -5.54328
    endloop
  endfacet
  facet normal -0.555571 0 -0.831469
    outer loop
      vertex -4.24264 -9 -4.24264
      vertex -2.2961 -5 -5.54328
      vertex -2.2961 -9 -5.54328
    endloop
  endfacet
  facet normal -0.555571 0 -0.831469
    outer loop
      vertex -2.2961 -5 -5.54328
      vertex -4.24264 -9 -4.24264
      vertex -4.24264 -5 -4.24264
    endloop
  endfacet
  facet normal 0.195089 0 -0.980785
    outer loop
      vertex 20 -9 -6
      vertex 22.2961 -5 -5.54328
      vertex 22.2961 -9 -5.54328
    endloop
  endfacet
  facet normal 0.195089 0 -0.980785
    outer loop
      vertex 22.2961 -5 -5.54328
      vertex 20 -9 -6
      vertex 20 -5 -6
    endloop
  endfacet
  facet normal -0 0 1
    outer loop
      vertex 0 -5 6
      vertex 20 -9 6
      vertex 20 -5 6
    endloop
  endfacet
  facet normal 0 0 1
    outer loop
      vertex 20 -9 6
      vertex 0 -5 6
      vertex 0 -9 6
    endloop
  endfacet
  facet normal -0.831469 0 -0.555571
    outer loop
      vertex -4.24264 -9 -4.24264
      vertex -5.54328 -5 -2.2961
      vertex -4.24264 -5 -4.24264
    endloop
  endfacet
  facet normal -0.831469 -0 -0.555571
    outer loop
      vertex -5.54328 -5 -2.2961
      vertex -4.24264 -9 -4.24264
      vertex -5.54328 -9 -2.2961
    endloop
  endfacet
  facet normal 0.831457 0 -0.555589
    outer loop
      vertex 25.5433 -9 -2.2961
      vertex 24.2426 -5 -4.24264
      vertex 25.5433 -5 -2.2961
    endloop
  endfacet
  facet normal 0.831457 0 -0.555589
    outer loop
      vertex 24.2426 -5 -4.24264
      vertex 25.5433 -9 -2.2961
      vertex 24.2426 -9 -4.24264
    endloop
  endfacet
  facet normal 0.195089 0 0.980785
    outer loop
      vertex 20 -5 6
      vertex 22.2961 -9 5.54328
      vertex 22.2961 -5 5.54328
    endloop
  endfacet
  facet normal 0.195089 0 0.980785
    outer loop
      vertex 22.2961 -9 5.54328
      vertex 20 -5 6
      vertex 20 -9 6
    endloop
  endfacet
  facet normal 0.555579 0 0.831464
    outer loop
      vertex 22.2961 -5 5.54328
      vertex 24.2426 -9 4.24264
      vertex 24.2426 -5 4.24264
    endloop
  endfacet
  facet normal 0.555579 0 0.831464
    outer loop
      vertex 24.2426 -9 4.24264
      vertex 22.2961 -5 5.54328
      vertex 22.2961 -9 5.54328
    endloop
  endfacet
  facet normal 0.831457 -0 0.555589
    outer loop
      vertex 24.2426 -9 4.24264
      vertex 25.5433 -5 2.2961
      vertex 24.2426 -5 4.24264
    endloop
  endfacet
  facet normal 0.831457 0 0.555589
    outer loop
      vertex 25.5433 -5 2.2961
      vertex 24.2426 -9 4.24264
      vertex 25.5433 -9 2.2961
    endloop
  endfacet
  facet normal -0.195089 0 0.980785
    outer loop
      vertex -2.2961 -5 5.54328
      vertex 0 -9 6
      vertex 0 -5 6
    endloop
  endfacet
  facet normal -0.195089 0 0.980785
    outer loop
      vertex 0 -9 6
      vertex -2.2961 -5 5.54328
      vertex -2.2961 -9 5.54328
    endloop
  endfacet
  facet normal 0.555579 0 -0.831464
    outer loop
      vertex 22.2961 -9 -5.54328
      vertex 24.2426 -5 -4.24264
      vertex 24.2426 -9 -4.24264
    endloop
  endfacet
  facet normal 0.555579 0 -0.831464
    outer loop
      vertex 24.2426 -5 -4.24264
      vertex 22.2961 -9 -5.54328
      vertex 22.2961 -5 -5.54328
    endloop
  endfacet
  facet normal -0.555571 0 0.831469
    outer loop
      vertex -4.24264 -5 4.24264
      vertex -2.2961 -9 5.54328
      vertex -2.2961 -5 5.54328
    endloop
  endfacet
  facet normal -0.555571 0 0.831469
    outer loop
      vertex -2.2961 -9 5.54328
      vertex -4.24264 -5 4.24264
      vertex -4.24264 -9 4.24264
    endloop
  endfacet
  facet normal 0.980787 -0 0.195081
    outer loop
      vertex 25.5433 -9 2.2961
      vertex 26 -5 0
      vertex 25.5433 -5 2.2961
    endloop
  endfacet
  facet normal 0.980787 0 0.195081
    outer loop
      vertex 26 -5 0
      vertex 25.5433 -9 2.2961
      vertex 26 -9 0
    endloop
  endfacet
  facet normal -0.980785 0 0.195089
    outer loop
      vertex -6 5 0
      vertex -5.54328 9 2.2961
      vertex -6 9 0
    endloop
  endfacet
  facet normal -0.980785 0 0.195089
    outer loop
      vertex -5.54328 9 2.2961
      vertex -6 5 0
      vertex -5.54328 5 2.2961
    endloop
  endfacet
  facet normal 0.831457 0 -0.555589
    outer loop
      vertex 25.5433 5 -2.2961
      vertex 24.2426 9 -4.24264
      vertex 25.5433 9 -2.2961
    endloop
  endfacet
  facet normal 0.831457 0 -0.555589
    outer loop
      vertex 24.2426 9 -4.24264
      vertex 25.5433 5 -2.2961
      vertex 24.2426 5 -4.24264
    endloop
  endfacet
  facet normal -0 0 1
    outer loop
      vertex 0 9 6
      vertex 20 5 6
      vertex 20 9 6
    endloop
  endfacet
  facet normal 0 0 1
    outer loop
      vertex 20 5 6
      vertex 0 9 6
      vertex 0 5 6
    endloop
  endfacet
  facet normal -0.195089 0 -0.980785
    outer loop
      vertex -2.2961 5 -5.54328
      vertex 0 9 -6
      vertex 0 5 -6
    endloop
  endfacet
  facet normal -0.195089 0 -0.980785
    outer loop
      vertex 0 9 -6
      vertex -2.2961 5 -5.54328
      vertex -2.2961 9 -5.54328
    endloop
  endfacet
  facet normal 0 1 0
    outer loop
      vertex 20 9 -6
      vertex 20 9 6
      vertex 22.2961 9 5.54328
    endloop
  endfacet
  facet normal 0 1 0
    outer loop
      vertex 20 9 6
      vertex 20 9 -6
      vertex 0 9 6
    endloop
  endfacet
  facet normal 0 1 0
    outer loop
      vertex 20 9 -6
      vertex 22.2961 9 5.54328
      vertex 24.2426 9 4.24264
    endloop
  endfacet
  facet normal 0 1 0
    outer loop
      vertex 0 9 -6
      vertex 0 9 6
      vertex 20 9 -6
    endloop
  endfacet
  facet normal 0 1 0
    outer loop
      vertex 20 9 -6
      vertex 24.2426 9 4.24264
      vertex 25.5433 9 2.2961
    endloop
  endfacet
  facet normal 0 1 0
    outer loop
      vertex 0 9 6
      vertex 0 9 -6
      vertex -2.2961 9 5.54328
    endloop
  endfacet
  facet normal 0 1 0
    outer loop
      vertex 20 9 -6
      vertex 25.5433 9 2.2961
      vertex 26 9 0
    endloop
  endfacet
  facet normal 0 1 0
    outer loop
      vertex -2.2961 9 5.54328
      vertex 0 9 -6
      vertex -4.24264 9 4.24264
    endloop
  endfacet
  facet normal 0 1 0
    outer loop
      vertex 20 9 -6
      vertex 26 9 0
      vertex 25.5433 9 -2.2961
    endloop
  endfacet
  facet normal 0 1 0
    outer loop
      vertex -4.24264 9 4.24264
      vertex 0 9 -6
      vertex -5.54328 9 2.2961
    endloop
  endfacet
  facet normal 0 1 0
    outer loop
      vertex 20 9 -6
      vertex 25.5433 9 -2.2961
      vertex 24.2426 9 -4.24264
    endloop
  endfacet
  facet normal 0 1 0
    outer loop
      vertex -5.54328 9 2.2961
      vertex 0 9 -6
      vertex -6 9 0
    endloop
  endfacet
  facet normal 0 1 0
    outer loop
      vertex 20 9 -6
      vertex 24.2426 9 -4.24264
      vertex 22.2961 9 -5.54328
    endloop
  endfacet
  facet normal 0 1 0
    outer loop
      vertex -6 9 0
      vertex 0 9 -6
      vertex -5.54328 9 -2.2961
    endloop
  endfacet
  facet normal 0 1 0
    outer loop
      vertex -5.54328 9 -2.2961
      vertex 0 9 -6
      vertex -4.24264 9 -4.24264
    endloop
  endfacet
  facet normal 0 1 0
    outer loop
      vertex -4.24264 9 -4.24264
      vertex 0 9 -6
      vertex -2.2961 9 -5.54328
    endloop
  endfacet
  facet normal 0 0 -1
    outer loop
      vertex 0 5 -6
      vertex 20 9 -6
      vertex 20 5 -6
    endloop
  endfacet
  facet normal -0 0 -1
    outer loop
      vertex 20 9 -6
      vertex 0 5 -6
      vertex 0 9 -6
    endloop
  endfacet
  facet normal -0.831469 0 -0.555571
    outer loop
      vertex -4.24264 5 -4.24264
      vertex -5.54328 9 -2.2961
      vertex -4.24264 9 -4.24264
    endloop
  endfacet
  facet normal -0.831469 -0 -0.555571
    outer loop
      vertex -5.54328 9 -2.2961
      vertex -4.24264 5 -4.24264
      vertex -5.54328 5 -2.2961
    endloop
  endfacet
  facet normal -0.980785 0 -0.195089
    outer loop
      vertex -5.54328 5 -2.2961
      vertex -6 9 0
      vertex -5.54328 9 -2.2961
    endloop
  endfacet
  facet normal -0.980785 -0 -0.195089
    outer loop
      vertex -6 9 0
      vertex -5.54328 5 -2.2961
      vertex -6 5 0
    endloop
  endfacet
  facet normal -0.831469 0 0.555571
    outer loop
      vertex -5.54328 5 2.2961
      vertex -4.24264 9 4.24264
      vertex -5.54328 9 2.2961
    endloop
  endfacet
  facet normal -0.831469 0 0.555571
    outer loop
      vertex -4.24264 9 4.24264
      vertex -5.54328 5 2.2961
      vertex -4.24264 5 4.24264
    endloop
  endfacet
  facet normal -0.555571 0 -0.831469
    outer loop
      vertex -4.24264 5 -4.24264
      vertex -2.2961 9 -5.54328
      vertex -2.2961 5 -5.54328
    endloop
  endfacet
  facet normal -0.555571 0 -0.831469
    outer loop
      vertex -2.2961 9 -5.54328
      vertex -4.24264 5 -4.24264
      vertex -4.24264 9 -4.24264
    endloop
  endfacet
  facet normal 0.555579 0 -0.831464
    outer loop
      vertex 22.2961 5 -5.54328
      vertex 24.2426 9 -4.24264
      vertex 24.2426 5 -4.24264
    endloop
  endfacet
  facet normal 0.555579 0 -0.831464
    outer loop
      vertex 24.2426 9 -4.24264
      vertex 22.2961 5 -5.54328
      vertex 22.2961 9 -5.54328
    endloop
  endfacet
  facet normal 0.555579 0 0.831464
    outer loop
      vertex 22.2961 9 5.54328
      vertex 24.2426 5 4.24264
      vertex 24.2426 9 4.24264
    endloop
  endfacet
  facet normal 0.555579 0 0.831464
    outer loop
      vertex 24.2426 5 4.24264
      vertex 22.2961 9 5.54328
      vertex 22.2961 5 5.54328
    endloop
  endfacet
  facet normal 0 -1 0
    outer loop
      vertex 0 5 2
      vertex 0 5 6
      vertex -2.2961 5 5.54328
    endloop
  endfacet
  facet normal 0 -1 0
    outer loop
      vertex 0 5 6
      vertex 1.41421 5 1.41421
      vertex 20 5 6
    endloop
  endfacet
  facet normal 0 -1 0
    outer loop
      vertex -0.765367 5 1.84776
      vertex -2.2961 5 5.54328
      vertex -4.24264 5 4.24264
    endloop
  endfacet
  facet normal 0 -1 0
    outer loop
      vertex 0 5 6
      vertex 0.765367 5 1.84776
      vertex 1.41421 5 1.41421
    endloop
  endfacet
  facet normal 0 -1 0
    outer loop
      vertex -1.41421 5 1.41421
      vertex -4.24264 5 4.24264
      vertex -5.54328 5 2.2961
    endloop
  endfacet
  facet normal 0 -1 0
    outer loop
      vertex 0 5 6
      vertex 0 5 2
      vertex 0.765367 5 1.84776
    endloop
  endfacet
  facet normal 0 -1 0
    outer loop
      vertex 1.84776 5 0.765367
      vertex 20 5 6
      vertex 1.41421 5 1.41421
    endloop
  endfacet
  facet normal 0 -1 0
    outer loop
      vertex -2.2961 5 5.54328
      vertex -0.765367 5 1.84776
      vertex 0 5 2
    endloop
  endfacet
  facet normal 0 -1 0
    outer loop
      vertex -4.24264 5 4.24264
      vertex -1.41421 5 1.41421
      vertex -0.765367 5 1.84776
    endloop
  endfacet
  facet normal 0 -1 0
    outer loop
      vertex -5.54328 5 2.2961
      vertex -1.84776 5 0.765367
      vertex -1.41421 5 1.41421
    endloop
  endfacet
  facet normal 0 -1 0
    outer loop
      vertex -6 5 0
      vertex -1.84776 5 0.765367
      vertex -5.54328 5 2.2961
    endloop
  endfacet
  facet normal 0 -1 0
    outer loop
      vertex -6 5 0
      vertex -2 5 0
      vertex -1.84776 5 0.765367
    endloop
  endfacet
  facet normal 0 -1 0
    outer loop
      vertex -6 5 0
      vertex -1.84776 5 -0.765367
      vertex -2 5 0
    endloop
  endfacet
  facet normal 0 -1 0
    outer loop
      vertex -5.54328 5 -2.2961
      vertex -1.84776 5 -0.765367
      vertex -6 5 0
    endloop
  endfacet
  facet normal 0 -1 -0
    outer loop
      vertex -1.84776 5 -0.765367
      vertex -5.54328 5 -2.2961
      vertex -1.41421 5 -1.41421
    endloop
  endfacet
  facet normal 0 -1 -0
    outer loop
      vertex -1.41421 5 -1.41421
      vertex -4.24264 5 -4.24264
      vertex -0.765367 5 -1.84776
    endloop
  endfacet
  facet normal 0 -1 0
    outer loop
      vertex -4.24264 5 -4.24264
      vertex -1.41421 5 -1.41421
      vertex -5.54328 5 -2.2961
    endloop
  endfacet
  facet normal 0 -1 0
    outer loop
      vertex 2 5 0
      vertex 20 5 6
      vertex 1.84776 5 0.765367
    endloop
  endfacet
  facet normal 0 -1 0
    outer loop
      vertex 20 5 -6
      vertex 20 5 6
      vertex 2 5 0
    endloop
  endfacet
  facet normal 0 -1 -0
    outer loop
      vertex 22.2961 5 5.54328
      vertex 20 5 -6
      vertex 24.2426 5 4.24264
    endloop
  endfacet
  facet normal 0 -1 0
    outer loop
      vertex 20 5 6
      vertex 20 5 -6
      vertex 22.2961 5 5.54328
    endloop
  endfacet
  facet normal 0 -1 -0
    outer loop
      vertex 24.2426 5 4.24264
      vertex 20 5 -6
      vertex 25.5433 5 2.2961
    endloop
  endfacet
  facet normal 0 -1 0
    outer loop
      vertex 20 5 -6
      vertex 2 5 0
      vertex 1.84776 5 -0.765367
    endloop
  endfacet
  facet normal 0 -1 0
    outer loop
      vertex 20 5 -6
      vertex 1.84776 5 -0.765367
      vertex 1.41421 5 -1.41421
    endloop
  endfacet
  facet normal 0 -1 0
    outer loop
      vertex 0 5 -6
      vertex 1.41421 5 -1.41421
      vertex 0.765367 5 -1.84776
    endloop
  endfacet
  facet normal 0 -1 0
    outer loop
      vertex 0 5 -6
      vertex 0.765367 5 -1.84776
      vertex 0 5 -2
    endloop
  endfacet
  facet normal 0 -1 -0
    outer loop
      vertex 25.5433 5 2.2961
      vertex 20 5 -6
      vertex 26 5 0
    endloop
  endfacet
  facet normal 0 -1 0
    outer loop
      vertex -2.2961 5 -5.54328
      vertex -0.765367 5 -1.84776
      vertex -4.24264 5 -4.24264
    endloop
  endfacet
  facet normal 0 -1 -0
    outer loop
      vertex -0.765367 5 -1.84776
      vertex -2.2961 5 -5.54328
      vertex 0 5 -2
    endloop
  endfacet
  facet normal 0 -1 -0
    outer loop
      vertex 1.41421 5 -1.41421
      vertex 0 5 -6
      vertex 20 5 -6
    endloop
  endfacet
  facet normal 0 -1 -0
    outer loop
      vertex 0 5 -2
      vertex -2.2961 5 -5.54328
      vertex 0 5 -6
    endloop
  endfacet
  facet normal 0 -1 0
    outer loop
      vertex 26 5 0
      vertex 20 5 -6
      vertex 25.5433 5 -2.2961
    endloop
  endfacet
  facet normal 0 -1 0
    outer loop
      vertex 25.5433 5 -2.2961
      vertex 20 5 -6
      vertex 24.2426 5 -4.24264
    endloop
  endfacet
  facet normal 0 -1 0
    outer loop
      vertex 24.2426 5 -4.24264
      vertex 20 5 -6
      vertex 22.2961 5 -5.54328
    endloop
  endfacet
  facet normal 0.195089 0 -0.980785
    outer loop
      vertex 20 5 -6
      vertex 22.2961 9 -5.54328
      vertex 22.2961 5 -5.54328
    endloop
  endfacet
  facet normal 0.195089 0 -0.980785
    outer loop
      vertex 22.2961 9 -5.54328
      vertex 20 5 -6
      vertex 20 9 -6
    endloop
  endfacet
  facet normal 0.195089 0 0.980785
    outer loop
      vertex 20 9 6
      vertex 22.2961 5 5.54328
      vertex 22.2961 9 5.54328
    endloop
  endfacet
  facet normal 0.195089 0 0.980785
    outer loop
      vertex 22.2961 5 5.54328
      vertex 20 9 6
      vertex 20 5 6
    endloop
  endfacet
  facet normal 0.980787 0 -0.195081
    outer loop
      vertex 26 5 0
      vertex 25.5433 9 -2.2961
      vertex 26 9 0
    endloop
  endfacet
  facet normal 0.980787 0 -0.195081
    outer loop
      vertex 25.5433 9 -2.2961
      vertex 26 5 0
      vertex 25.5433 5 -2.2961
    endloop
  endfacet
  facet normal 0.831457 -0 0.555589
    outer loop
      vertex 24.2426 5 4.24264
      vertex 25.5433 9 2.2961
      vertex 24.2426 9 4.24264
    endloop
  endfacet
  facet normal 0.831457 0 0.555589
    outer loop
      vertex 25.5433 9 2.2961
      vertex 24.2426 5 4.24264
      vertex 25.5433 5 2.2961
    endloop
  endfacet
  facet normal -0.555571 0 0.831469
    outer loop
      vertex -4.24264 9 4.24264
      vertex -2.2961 5 5.54328
      vertex -2.2961 9 5.54328
    endloop
  endfacet
  facet normal -0.555571 0 0.831469
    outer loop
      vertex -2.2961 5 5.54328
      vertex -4.24264 9 4.24264
      vertex -4.24264 5 4.24264
    endloop
  endfacet
  facet normal -0.195089 0 0.980785
    outer loop
      vertex -2.2961 9 5.54328
      vertex 0 5 6
      vertex 0 9 6
    endloop
  endfacet
  facet normal -0.195089 0 0.980785
    outer loop
      vertex 0 5 6
      vertex -2.2961 9 5.54328
      vertex -2.2961 5 5.54328
    endloop
  endfacet
  facet normal 0.980787 -0 0.195081
    outer loop
      vertex 25.5433 5 2.2961
      vertex 26 9 0
      vertex 25.5433 9 2.2961
    endloop
  endfacet
  facet normal 0.980787 0 0.195081
    outer loop
      vertex 26 9 0
      vertex 25.5433 5 2.2961
      vertex 26 5 0
    endloop
  endfacet
  facet normal 0.980786 -0 0.195089
    outer loop
      vertex 1.84776 -5 0.765367
      vertex 2 5 0
      vertex 1.84776 5 0.765367
    endloop
  endfacet
  facet normal 0.980786 0 0.195089
    outer loop
      vertex 2 5 0
      vertex 1.84776 -5 0.765367
      vertex 2 -5 0
    endloop
  endfacet
  facet normal -0.980786 0 0.195089
    outer loop
      vertex -2 -5 0
      vertex -1.84776 5 0.765367
      vertex -2 5 0
    endloop
  endfacet
  facet normal -0.980786 0 0.195089
    outer loop
      vertex -1.84776 5 0.765367
      vertex -2 -5 0
      vertex -1.84776 -5 0.765367
    endloop
  endfacet
  facet normal 0.195089 0 0.980786
    outer loop
      vertex 0 5 2
      vertex 0.765367 -5 1.84776
      vertex 0.765367 5 1.84776
    endloop
  endfacet
  facet normal 0.195089 0 0.980786
    outer loop
      vertex 0.765367 -5 1.84776
      vertex 0 5 2
      vertex 0 -5 2
    endloop
  endfacet
  facet normal 0.831465 -0 0.555576
    outer loop
      vertex 1.41421 -5 1.41421
      vertex 1.84776 5 0.765367
      vertex 1.41421 5 1.41421
    endloop
  endfacet
  facet normal 0.831465 0 0.555576
    outer loop
      vertex 1.84776 5 0.765367
      vertex 1.41421 -5 1.41421
      vertex 1.84776 -5 0.765367
    endloop
  endfacet
  facet normal 0.195089 0 -0.980786
    outer loop
      vertex 0 -5 -2
      vertex 0.765367 5 -1.84776
      vertex 0.765367 -5 -1.84776
    endloop
  endfacet
  facet normal 0.195089 0 -0.980786
    outer loop
      vertex 0.765367 5 -1.84776
      vertex 0 -5 -2
      vertex 0 5 -2
    endloop
  endfacet
  facet normal -0.195089 0 -0.980786
    outer loop
      vertex -0.765367 -5 -1.84776
      vertex 0 5 -2
      vertex 0 -5 -2
    endloop
  endfacet
  facet normal -0.195089 0 -0.980786
    outer loop
      vertex 0 5 -2
      vertex -0.765367 -5 -1.84776
      vertex -0.765367 5 -1.84776
    endloop
  endfacet
  facet normal -0.195089 0 0.980786
    outer loop
      vertex -0.765367 5 1.84776
      vertex 0 -5 2
      vertex 0 5 2
    endloop
  endfacet
  facet normal -0.195089 0 0.980786
    outer loop
      vertex 0 -5 2
      vertex -0.765367 5 1.84776
      vertex -0.765367 -5 1.84776
    endloop
  endfacet
  facet normal -0.555576 0 0.831465
    outer loop
      vertex -1.41421 5 1.41421
      vertex -0.765367 -5 1.84776
      vertex -0.765367 5 1.84776
    endloop
  endfacet
  facet normal -0.555576 0 0.831465
    outer loop
      vertex -0.765367 -5 1.84776
      vertex -1.41421 5 1.41421
      vertex -1.41421 -5 1.41421
    endloop
  endfacet
  facet normal -0.980786 0 -0.195089
    outer loop
      vertex -1.84776 -5 -0.765367
      vertex -2 5 0
      vertex -1.84776 5 -0.765367
    endloop
  endfacet
  facet normal -0.980786 -0 -0.195089
    outer loop
      vertex -2 5 0
      vertex -1.84776 -5 -0.765367
      vertex -2 -5 0
    endloop
  endfacet
  facet normal -0.555576 0 -0.831465
    outer loop
      vertex -1.41421 -5 -1.41421
      vertex -0.765367 5 -1.84776
      vertex -0.765367 -5 -1.84776
    endloop
  endfacet
  facet normal -0.555576 0 -0.831465
    outer loop
      vertex -0.765367 5 -1.84776
      vertex -1.41421 -5 -1.41421
      vertex -1.41421 5 -1.41421
    endloop
  endfacet
  facet normal 0.555576 0 0.831465
    outer loop
      vertex 0.765367 5 1.84776
      vertex 1.41421 -5 1.41421
      vertex 1.41421 5 1.41421
    endloop
  endfacet
  facet normal 0.555576 0 0.831465
    outer loop
      vertex 1.41421 -5 1.41421
      vertex 0.765367 5 1.84776
      vertex 0.765367 -5 1.84776
    endloop
  endfacet
  facet normal -0.831465 0 0.555576
    outer loop
      vertex -1.84776 -5 0.765367
      vertex -1.41421 5 1.41421
      vertex -1.84776 5 0.765367
    endloop
  endfacet
  facet normal -0.831465 0 0.555576
    outer loop
      vertex -1.41421 5 1.41421
      vertex -1.84776 -5 0.765367
      vertex -1.41421 -5 1.41421
    endloop
  endfacet
  facet normal 0.831465 0 -0.555576
    outer loop
      vertex 1.84776 -5 -0.765367
      vertex 1.41421 5 -1.41421
      vertex 1.84776 5 -0.765367
    endloop
  endfacet
  facet normal 0.831465 0 -0.555576
    outer loop
      vertex 1.41421 5 -1.41421
      vertex 1.84776 -5 -0.765367
      vertex 1.41421 -5 -1.41421
    endloop
  endfacet
  facet normal 0.555576 0 -0.831465
    outer loop
      vertex 0.765367 -5 -1.84776
      vertex 1.41421 5 -1.41421
      vertex 1.41421 -5 -1.41421
    endloop
  endfacet
  facet normal 0.555576 0 -0.831465
    outer loop
      vertex 1.41421 5 -1.41421
      vertex 0.765367 -5 -1.84776
      vertex 0.765367 5 -1.84776
    endloop
  endfacet
  facet normal 0.980786 0 -0.195089
    outer loop
      vertex 2 -5 0
      vertex 1.84776 5 -0.765367
      vertex 2 5 0
    endloop
  endfacet
  facet normal 0.980786 0 -0.195089
    outer loop
      vertex 1.84776 5 -0.765367
      vertex 2 -5 0
      vertex 1.84776 -5 -0.765367
    endloop
  endfacet
  facet normal -0.831465 0 -0.555576
    outer loop
      vertex -1.41421 -5 -1.41421
      vertex -1.84776 5 -0.765367
      vertex -1.41421 5 -1.41421
    endloop
  endfacet
  facet normal -0.831465 -0 -0.555576
    outer loop
      vertex -1.84776 5 -0.765367
      vertex -1.41421 -5 -1.41421
      vertex -1.84776 -5 -0.765367
    endloop
  endfacet
endsolid OpenSCAD_Model
